<svg xmlns="http://www.w3.org/2000/svg" width="1200" height="1200" viewBox="0 0 1200 1200">
<rect width="1200" height="1200" fill="#C6C4BE"/>
<g fill="none" stroke-linecap="butt" stroke-linejoin="miter" stroke-miterlimit="4" shape-rendering="geometricPrecision">
  <path d="M 600.00,526.40 L 898.78,698.90" stroke="#7B7976" stroke-width="2.60" stroke-opacity="0.32"/>
  <path d="M 600.00,526.40 L 301.22,698.90" stroke="#7B7976" stroke-width="2.60" stroke-opacity="0.32"/>
  <path d="M 600.00,526.40 L 600.00,445.90" stroke="#7B7976" stroke-width="2.60" stroke-opacity="0.32"/>
  <path d="M 674.69,489.02 L 375.92,661.52" stroke="#7B7976" stroke-width="2.60" stroke-opacity="0.32"/>
  <path d="M 525.31,489.02 L 824.08,661.52" stroke="#7B7976" stroke-width="2.60" stroke-opacity="0.32"/>
  <path d="M 749.39,532.15 L 450.61,704.65" stroke="#7B7976" stroke-width="2.60" stroke-opacity="0.32"/>
  <path d="M 450.61,532.15 L 749.39,704.65" stroke="#7B7976" stroke-width="2.60" stroke-opacity="0.32"/>
  <path d="M 824.08,575.27 L 525.31,747.77" stroke="#7B7976" stroke-width="2.60" stroke-opacity="0.32"/>
  <path d="M 375.92,575.27 L 674.69,747.77" stroke="#7B7976" stroke-width="2.60" stroke-opacity="0.32"/>
  <path d="M 600.00,489.60 L 823.09,618.40" stroke="#7B7976" stroke-width="2.60" stroke-opacity="0.32"/>
  <path d="M 600.00,489.60 L 376.91,618.40" stroke="#7B7976" stroke-width="2.60" stroke-opacity="0.32"/>
  <path d="M 600.00,489.60 L 600.00,409.10" stroke="#7B7976" stroke-width="2.60" stroke-opacity="0.32"/>
  <path d="M 674.36,452.03 L 451.27,580.83" stroke="#7B7976" stroke-width="2.60" stroke-opacity="0.32"/>
  <path d="M 525.64,452.03 L 748.73,580.83" stroke="#7B7976" stroke-width="2.60" stroke-opacity="0.32"/>
  <path d="M 748.73,494.97 L 525.64,623.77" stroke="#7B7976" stroke-width="2.60" stroke-opacity="0.32"/>
  <path d="M 451.27,494.97 L 674.36,623.77" stroke="#7B7976" stroke-width="2.60" stroke-opacity="0.32"/>
  <path d="M 600.00,450.50 L 751.38,537.90" stroke="#7B7976" stroke-width="2.60" stroke-opacity="0.32"/>
  <path d="M 600.00,450.50 L 448.62,537.90" stroke="#7B7976" stroke-width="2.60" stroke-opacity="0.32"/>
  <path d="M 600.00,450.50 L 600.00,370.00" stroke="#7B7976" stroke-width="2.60" stroke-opacity="0.32"/>
  <path d="M 675.69,413.70 L 524.31,501.10" stroke="#7B7976" stroke-width="2.60" stroke-opacity="0.32"/>
  <path d="M 524.31,413.70 L 675.69,501.10" stroke="#7B7976" stroke-width="2.60" stroke-opacity="0.32"/>
  <path d="M 600.00,409.10 L 683.66,457.40" stroke="#7B7976" stroke-width="2.60" stroke-opacity="0.32"/>
  <path d="M 600.00,409.10 L 516.34,457.40" stroke="#7B7976" stroke-width="2.60" stroke-opacity="0.32"/>
  <path d="M 600.00,409.10 L 600.00,328.60" stroke="#7B7976" stroke-width="2.60" stroke-opacity="0.32"/>
  <path d="M 641.83,352.75 L 558.17,401.05" stroke="#7B7976" stroke-width="2.60" stroke-opacity="0.32"/>
  <path d="M 558.17,352.75 L 641.83,401.05" stroke="#7B7976" stroke-width="2.60" stroke-opacity="0.32"/>
  <path d="M 600.00,445.90 L 898.78,618.40" stroke="#7B7976" stroke-width="2.60" stroke-opacity="0.52"/>
  <path d="M 301.22,698.90 L 600.00,871.40" stroke="#7B7976" stroke-width="2.60" stroke-opacity="0.52"/>
  <path d="M 301.22,618.40 L 600.00,790.90" stroke="#7B7976" stroke-width="2.60" stroke-opacity="0.52"/>
  <path d="M 600.00,445.90 L 301.22,618.40" stroke="#7B7976" stroke-width="2.60" stroke-opacity="0.52"/>
  <path d="M 898.78,698.90 L 600.00,871.40" stroke="#7B7976" stroke-width="2.60" stroke-opacity="0.52"/>
  <path d="M 898.78,618.40 L 600.00,790.90" stroke="#7B7976" stroke-width="2.60" stroke-opacity="0.52"/>
  <path d="M 301.22,698.90 L 301.22,618.40" stroke="#7B7976" stroke-width="2.60" stroke-opacity="0.52"/>
  <path d="M 898.78,698.90 L 898.78,618.40" stroke="#7B7976" stroke-width="2.60" stroke-opacity="0.52"/>
  <path d="M 600.00,871.40 L 600.00,790.90" stroke="#7B7976" stroke-width="2.60" stroke-opacity="0.52"/>
  <path d="M 600.00,409.10 L 823.09,537.90" stroke="#7B7976" stroke-width="2.60" stroke-opacity="0.52"/>
  <path d="M 376.91,618.40 L 600.00,747.20" stroke="#7B7976" stroke-width="2.60" stroke-opacity="0.52"/>
  <path d="M 376.91,537.90 L 600.00,666.70" stroke="#7B7976" stroke-width="2.60" stroke-opacity="0.52"/>
  <path d="M 600.00,409.10 L 376.91,537.90" stroke="#7B7976" stroke-width="2.60" stroke-opacity="0.52"/>
  <path d="M 823.09,618.40 L 600.00,747.20" stroke="#7B7976" stroke-width="2.60" stroke-opacity="0.52"/>
  <path d="M 823.09,537.90 L 600.00,666.70" stroke="#7B7976" stroke-width="2.60" stroke-opacity="0.52"/>
  <path d="M 376.91,618.40 L 376.91,537.90" stroke="#7B7976" stroke-width="2.60" stroke-opacity="0.52"/>
  <path d="M 823.09,618.40 L 823.09,537.90" stroke="#7B7976" stroke-width="2.60" stroke-opacity="0.52"/>
  <path d="M 600.00,747.20 L 600.00,666.70" stroke="#7B7976" stroke-width="2.60" stroke-opacity="0.52"/>
  <path d="M 600.00,370.00 L 751.38,457.40" stroke="#7B7976" stroke-width="2.60" stroke-opacity="0.52"/>
  <path d="M 448.62,537.90 L 600.00,625.30" stroke="#7B7976" stroke-width="2.60" stroke-opacity="0.52"/>
  <path d="M 448.62,457.40 L 600.00,544.80" stroke="#7B7976" stroke-width="2.60" stroke-opacity="0.52"/>
  <path d="M 600.00,370.00 L 448.62,457.40" stroke="#7B7976" stroke-width="2.60" stroke-opacity="0.52"/>
  <path d="M 751.38,537.90 L 600.00,625.30" stroke="#7B7976" stroke-width="2.60" stroke-opacity="0.52"/>
  <path d="M 751.38,457.40 L 600.00,544.80" stroke="#7B7976" stroke-width="2.60" stroke-opacity="0.52"/>
  <path d="M 448.62,537.90 L 448.62,457.40" stroke="#7B7976" stroke-width="2.60" stroke-opacity="0.52"/>
  <path d="M 751.38,537.90 L 751.38,457.40" stroke="#7B7976" stroke-width="2.60" stroke-opacity="0.52"/>
  <path d="M 600.00,625.30 L 600.00,544.80" stroke="#7B7976" stroke-width="2.60" stroke-opacity="0.52"/>
  <path d="M 600.00,328.60 L 683.66,376.90" stroke="#7B7976" stroke-width="2.60" stroke-opacity="0.52"/>
  <path d="M 516.34,457.40 L 600.00,505.70" stroke="#7B7976" stroke-width="2.60" stroke-opacity="0.52"/>
  <path d="M 516.34,376.90 L 600.00,425.20" stroke="#7B7976" stroke-width="2.60" stroke-opacity="0.52"/>
  <path d="M 600.00,328.60 L 516.34,376.90" stroke="#7B7976" stroke-width="2.60" stroke-opacity="0.52"/>
  <path d="M 683.66,457.40 L 600.00,505.70" stroke="#7B7976" stroke-width="2.60" stroke-opacity="0.52"/>
  <path d="M 683.66,376.90 L 600.00,425.20" stroke="#7B7976" stroke-width="2.60" stroke-opacity="0.52"/>
  <path d="M 516.34,457.40 L 516.34,376.90" stroke="#7B7976" stroke-width="2.60" stroke-opacity="0.52"/>
  <path d="M 683.66,457.40 L 683.66,376.90" stroke="#7B7976" stroke-width="2.60" stroke-opacity="0.52"/>
  <path d="M 600.00,505.70 L 600.00,425.20" stroke="#7B7976" stroke-width="2.60" stroke-opacity="0.52"/>
</g>
<circle cx="600.00" cy="393.00" r="8.00" fill="#C6C4BE"/>
<circle cx="600.00" cy="393.00" r="5.50" fill="#D2EF15"/>
</svg>