<svg xmlns="http://www.w3.org/2000/svg" width="1200" height="1200" viewBox="0 0 1200 1200">
  <defs><filter id="grain"><feTurbulence type="fractalNoise" baseFrequency="0.9" numOctaves="2" stitchTiles="stitch"/><feColorMatrix type="saturate" values="0"/><feComponentTransfer><feFuncA type="linear" slope="0.06"/></feComponentTransfer></filter></defs>
  <rect width="1200" height="1200" fill="#1A1A18"/>
  <rect width="1200" height="1200" filter="url(#grain)"/>
  <g fill="#868990" opacity="1.0">
    <polygon points="559.21,292.13 612.36,623.71 612.71,623.65 560.79,291.87"/>
    <polygon points="612.36,623.71 664.28,955.48 665.86,955.23 612.71,623.65"/>
    <polygon points="664.28,308.52 612.36,640.29 612.71,640.35 665.86,308.77"/>
    <polygon points="612.36,640.29 559.21,971.87 560.79,972.13 612.71,640.35"/>
    <polygon points="759.13,356.57 607.23,656.07 607.55,656.23 760.56,357.30"/>
    <polygon points="607.23,656.07 454.22,955.00 455.65,955.72 607.55,656.23"/>
    <polygon points="834.50,431.59 597.48,669.48 597.74,669.74 835.63,432.72"/>
    <polygon points="597.48,669.48 359.59,906.50 360.72,907.63 597.74,669.74"/>
    <polygon points="883.00,526.22 584.07,679.23 584.23,679.55 883.72,527.65"/>
    <polygon points="584.07,679.23 284.57,831.13 285.30,832.56 584.23,679.55"/>
    <polygon points="899.87,631.21 568.29,684.36 568.35,684.71 900.13,632.79"/>
    <polygon points="568.29,684.36 236.52,736.28 236.77,737.86 568.35,684.71"/>
    <polygon points="883.48,736.28 551.71,684.36 551.65,684.71 883.23,737.86"/>
    <polygon points="551.71,684.36 220.13,631.21 219.87,632.79 551.65,684.71"/>
    <polygon points="835.43,831.13 535.93,679.23 535.77,679.55 834.70,832.56"/>
    <polygon points="535.93,679.23 237.00,526.22 236.28,527.65 535.77,679.55"/>
    <polygon points="760.41,906.50 522.52,669.48 522.26,669.74 759.28,907.63"/>
    <polygon points="522.52,669.48 285.50,431.59 284.37,432.72 522.26,669.74"/>
    <polygon points="665.78,955.00 512.77,656.07 512.45,656.23 664.35,955.72"/>
    <polygon points="512.77,656.07 360.87,356.57 359.44,357.30 512.45,656.23"/>
    <polygon points="560.79,971.87 507.64,640.29 507.29,640.35 559.21,972.13"/>
    <polygon points="507.64,640.29 455.72,308.52 454.14,308.77 507.29,640.35"/>
    <polygon points="455.72,955.48 507.64,623.71 507.29,623.65 454.14,955.23"/>
    <polygon points="507.64,623.71 560.79,292.13 559.21,291.87 507.29,623.65"/>
    <polygon points="360.87,907.43 512.77,607.93 512.45,607.77 359.44,906.70"/>
    <polygon points="512.77,607.93 665.78,309.00 664.35,308.28 512.45,607.77"/>
    <polygon points="285.50,832.41 522.52,594.52 522.26,594.26 284.37,831.28"/>
    <polygon points="522.52,594.52 760.41,357.50 759.28,356.37 522.26,594.26"/>
    <polygon points="237.00,737.78 535.93,584.77 535.77,584.45 236.28,736.35"/>
    <polygon points="535.93,584.77 835.43,432.87 834.70,431.44 535.77,584.45"/>
    <polygon points="220.13,632.79 551.71,579.64 551.65,579.29 219.87,631.21"/>
    <polygon points="551.71,579.64 883.48,527.72 883.23,526.14 551.65,579.29"/>
    <polygon points="236.52,527.72 568.29,579.64 568.35,579.29 236.77,526.14"/>
    <polygon points="568.29,579.64 899.87,632.79 900.13,631.21 568.35,579.29"/>
    <polygon points="284.57,432.87 584.07,584.77 584.23,584.45 285.30,431.44"/>
    <polygon points="584.07,584.77 883.00,737.78 883.72,736.35 584.23,584.45"/>
    <polygon points="359.59,357.50 597.48,594.52 597.74,594.26 360.72,356.37"/>
    <polygon points="597.48,594.52 834.50,832.41 835.63,831.28 597.74,594.26"/>
    <polygon points="454.22,309.00 607.23,607.93 607.55,607.77 455.65,308.28"/>
    <polygon points="607.23,607.93 759.13,907.43 760.56,906.70 607.55,607.77"/>
  </g>
  <circle cx="560" cy="632" r="20" fill="#1A1A18"/>
  <g fill="#6f7277">
    <circle cx="665.07" cy="308.64" r="4"/>
    <circle cx="883.36" cy="526.93" r="4"/>
    <circle cx="883.36" cy="737.07" r="4"/>
    <circle cx="665.07" cy="955.36" r="4"/>
    <circle cx="454.93" cy="955.36" r="4"/>
    <circle cx="236.64" cy="737.07" r="4"/>
    <circle cx="236.64" cy="526.93" r="4"/>
    <circle cx="454.93" cy="308.64" r="4"/>
  </g>
  <g fill="#868990">
    <circle cx="759.85" cy="356.93" r="6"/>
    <circle cx="835.07" cy="432.15" r="6"/>
    <circle cx="835.07" cy="831.85" r="6"/>
    <circle cx="759.85" cy="907.07" r="6"/>
    <circle cx="360.15" cy="907.07" r="6"/>
    <circle cx="284.93" cy="831.85" r="6"/>
    <circle cx="284.93" cy="432.15" r="6"/>
    <circle cx="360.15" cy="356.93" r="6"/>
  </g>
  <g fill="#9ea3a9">
    <circle cx="560.00" cy="292.00" r="9"/>
    <circle cx="900.00" cy="632.00" r="9"/>
    <circle cx="560.00" cy="972.00" r="9"/>
    <circle cx="220.00" cy="632.00" r="9"/>
  </g>
  <g fill="#6f7277">
    <circle cx="560.00" cy="592.00" r="4"/>
    <circle cx="588.30" cy="603.70" r="4"/>
    <circle cx="600.00" cy="632.00" r="4"/>
    <circle cx="588.30" cy="660.30" r="4"/>
    <circle cx="560.00" cy="672.00" r="4"/>
    <circle cx="531.70" cy="660.30" r="4"/>
    <circle cx="520.00" cy="632.00" r="4"/>
    <circle cx="531.70" cy="603.70" r="4"/>
  </g>
  <circle cx="560" cy="632" r="15" fill="none" stroke="#C9C9C4" stroke-width="2"/>
  <circle cx="560" cy="632" r="9" fill="#D2EF15"/>
</svg>
