<svg xmlns="http://www.w3.org/2000/svg" width="1200" height="1200" viewBox="0 0 1200 1200">
<!-- D03 · UX Design · Family B (MASS) FINAL — tapered woven constellation, PALE.
     AM-6 (2026-06-11): Family B reverts to pale ground #C6C4BE + darker #7B7976
     masses on a soft translucent register (D02 lineage); tapered strands shared
     with the A twin. No outlines. One lime heart. Phase-6 gate + AM-5/AM-6. -->
  <rect width="1200" height="1200" fill="#C6C4BE"/>
  <g fill="#7B7976" opacity="0.4">
    <polygon points="557.04,292.47 611.84,623.79 613.22,623.57 562.96,291.53"/>
    <polygon points="611.84,623.79 662.10,955.83 668.03,954.89 613.22,623.57"/>
    <polygon points="662.10,308.17 611.84,640.21 613.22,640.43 668.03,309.11"/>
    <polygon points="611.84,640.21 557.04,971.53 562.96,972.47 613.22,640.43"/>
    <polygon points="757.17,355.57 606.77,655.83 608.01,656.46 762.52,358.30"/>
    <polygon points="606.77,655.83 452.26,954.00 457.61,956.72 608.01,656.46"/>
    <polygon points="832.94,430.03 597.11,669.11 598.10,670.10 837.19,434.27"/>
    <polygon points="597.11,669.11 358.03,904.94 362.27,909.19 598.10,670.10"/>
    <polygon points="882.00,524.26 583.83,678.77 584.46,680.01 884.72,529.61"/>
    <polygon points="583.83,678.77 283.57,829.17 286.30,834.52 584.46,680.01"/>
    <polygon points="899.53,629.04 568.21,683.84 568.43,685.22 900.47,634.96"/>
    <polygon points="568.21,683.84 236.17,734.10 237.11,740.03 568.43,685.22"/>
    <polygon points="883.83,734.10 551.79,683.84 551.57,685.22 882.89,740.03"/>
    <polygon points="551.79,683.84 220.47,629.04 219.53,634.96 551.57,685.22"/>
    <polygon points="836.43,829.17 536.17,678.77 535.54,680.01 833.70,834.52"/>
    <polygon points="536.17,678.77 238.00,524.26 235.28,529.61 535.54,680.01"/>
    <polygon points="761.97,904.94 522.89,669.11 521.90,670.10 757.73,909.19"/>
    <polygon points="522.89,669.11 287.06,430.03 282.81,434.27 521.90,670.10"/>
    <polygon points="667.74,954.00 513.23,655.83 511.99,656.46 662.39,956.72"/>
    <polygon points="513.23,655.83 362.83,355.57 357.48,358.30 511.99,656.46"/>
    <polygon points="562.96,971.53 508.16,640.21 506.78,640.43 557.04,972.47"/>
    <polygon points="508.16,640.21 457.90,308.17 451.97,309.11 506.78,640.43"/>
    <polygon points="457.90,955.83 508.16,623.79 506.78,623.57 451.97,954.89"/>
    <polygon points="508.16,623.79 562.96,292.47 557.04,291.53 506.78,623.57"/>
    <polygon points="362.83,908.43 513.23,608.17 511.99,607.54 357.48,905.70"/>
    <polygon points="513.23,608.17 667.74,310.00 662.39,307.28 511.99,607.54"/>
    <polygon points="287.06,833.97 522.89,594.89 521.90,593.90 282.81,829.73"/>
    <polygon points="522.89,594.89 761.97,359.06 757.73,354.81 521.90,593.90"/>
    <polygon points="238.00,739.74 536.17,585.23 535.54,583.99 235.28,734.39"/>
    <polygon points="536.17,585.23 836.43,434.83 833.70,429.48 535.54,583.99"/>
    <polygon points="220.47,634.96 551.79,580.16 551.57,578.78 219.53,629.04"/>
    <polygon points="551.79,580.16 883.83,529.90 882.89,523.97 551.57,578.78"/>
    <polygon points="236.17,529.90 568.21,580.16 568.43,578.78 237.11,523.97"/>
    <polygon points="568.21,580.16 899.53,634.96 900.47,629.04 568.43,578.78"/>
    <polygon points="283.57,434.83 583.83,585.23 584.46,583.99 286.30,429.48"/>
    <polygon points="583.83,585.23 882.00,739.74 884.72,734.39 584.46,583.99"/>
    <polygon points="358.03,359.06 597.11,594.89 598.10,593.90 362.27,354.81"/>
    <polygon points="597.11,594.89 832.94,833.97 837.19,829.73 598.10,593.90"/>
    <polygon points="452.26,310.00 606.77,608.17 608.01,607.54 457.61,307.28"/>
    <polygon points="606.77,608.17 757.17,908.43 762.52,905.70 608.01,607.54"/>
  </g>
  <g fill="#7B7976" opacity="0.22">
    <circle cx="665.07" cy="308.64" r="4"/>
    <circle cx="883.36" cy="526.93" r="4"/>
    <circle cx="883.36" cy="737.07" r="4"/>
    <circle cx="665.07" cy="955.36" r="4"/>
    <circle cx="454.93" cy="955.36" r="4"/>
    <circle cx="236.64" cy="737.07" r="4"/>
    <circle cx="236.64" cy="526.93" r="4"/>
    <circle cx="454.93" cy="308.64" r="4"/>
  </g>
  <g fill="#7B7976" opacity="0.38">
    <circle cx="759.85" cy="356.93" r="6"/>
    <circle cx="835.07" cy="432.15" r="6"/>
    <circle cx="835.07" cy="831.85" r="6"/>
    <circle cx="759.85" cy="907.07" r="6"/>
    <circle cx="360.15" cy="907.07" r="6"/>
    <circle cx="284.93" cy="831.85" r="6"/>
    <circle cx="284.93" cy="432.15" r="6"/>
    <circle cx="360.15" cy="356.93" r="6"/>
  </g>
  <g fill="#7B7976" opacity="0.55">
    <circle cx="560.00" cy="292.00" r="9"/>
    <circle cx="900.00" cy="632.00" r="9"/>
    <circle cx="560.00" cy="972.00" r="9"/>
    <circle cx="220.00" cy="632.00" r="9"/>
  </g>
  <g fill="#7B7976" opacity="0.38">
    <circle cx="560.00" cy="592.00" r="4"/>
    <circle cx="588.30" cy="603.70" r="4"/>
    <circle cx="600.00" cy="632.00" r="4"/>
    <circle cx="588.30" cy="660.30" r="4"/>
    <circle cx="560.00" cy="672.00" r="4"/>
    <circle cx="531.70" cy="660.30" r="4"/>
    <circle cx="520.00" cy="632.00" r="4"/>
    <circle cx="531.70" cy="603.70" r="4"/>
  </g>
  <circle cx="560" cy="632" r="15" fill="#C6C4BE"/>
  <circle cx="560" cy="632" r="9" fill="#D2EF15"/>
</svg>
