<svg xmlns="http://www.w3.org/2000/svg" width="1200" height="1200" viewBox="0 0 1200 1200">
<rect width="1200" height="1200" fill="#C6C4BE"/>
<g stroke="#7B7976" stroke-opacity="0.36" stroke-width="2.6" fill="none" stroke-linecap="round" stroke-linejoin="round">
  <ellipse cx="600.0" cy="420.8" rx="259.2" ry="116.6"/>
  <ellipse cx="600.0" cy="474.0" rx="223.5" ry="100.6"/>
  <ellipse cx="600.0" cy="527.2" rx="187.8" ry="84.5"/>
  <ellipse cx="600.0" cy="580.4" rx="152.1" ry="68.4"/>
  <ellipse cx="600.0" cy="633.6" rx="116.4" ry="52.4"/>
  <ellipse cx="600.0" cy="686.8" rx="80.7" ry="36.3"/>
  <ellipse cx="600.0" cy="360.0" rx="300.0" ry="135.0"/>
  <ellipse cx="600.0" cy="740.0" rx="45.0" ry="20.2"/>
  <ellipse cx="600.0" cy="790.0" rx="24.0" ry="10.8"/>
  <line x1="300.0" y1="360.0" x2="555.0" y2="740.0"/>
  <line x1="900.0" y1="360.0" x2="645.0" y2="740.0"/>
  <line x1="555.0" y1="740.0" x2="576.0" y2="790.0"/>
  <line x1="645.0" y1="740.0" x2="624.0" y2="790.0"/>
</g>
<g fill="#7B7976" fill-opacity="0.26">
  <circle cx="422.0" cy="232.0" r="4.2"/>
  <circle cx="481.3" cy="232.0" r="4.2"/>
  <circle cx="540.7" cy="232.0" r="4.2"/>
  <circle cx="600.0" cy="232.0" r="4.2"/>
  <circle cx="659.3" cy="232.0" r="4.2"/>
  <circle cx="718.7" cy="232.0" r="4.2"/>
  <circle cx="778.0" cy="232.0" r="4.2"/>
</g>
<g fill="#7B7976" fill-opacity="0.29">
  <circle cx="450.0" cy="268.0" r="4.4"/>
  <circle cx="510.0" cy="268.0" r="4.4"/>
  <circle cx="570.0" cy="268.0" r="4.4"/>
  <circle cx="630.0" cy="268.0" r="4.4"/>
  <circle cx="690.0" cy="268.0" r="4.4"/>
  <circle cx="750.0" cy="268.0" r="4.4"/>
</g>
<g fill="#7B7976" fill-opacity="0.31">
  <circle cx="478.0" cy="304.0" r="4.6"/>
  <circle cx="539.0" cy="304.0" r="4.6"/>
  <circle cx="600.0" cy="304.0" r="4.6"/>
  <circle cx="661.0" cy="304.0" r="4.6"/>
  <circle cx="722.0" cy="304.0" r="4.6"/>
</g>
<g fill="#7B7976" fill-opacity="0.34">
  <circle cx="504.0" cy="348.0" r="4.8"/>
  <circle cx="552.0" cy="348.0" r="4.8"/>
  <circle cx="600.0" cy="348.0" r="4.8"/>
  <circle cx="648.0" cy="348.0" r="4.8"/>
  <circle cx="696.0" cy="348.0" r="4.8"/>
</g>
<g fill="#7B7976" fill-opacity="0.37">
  <circle cx="528.0" cy="404.0" r="5.0"/>
  <circle cx="576.0" cy="404.0" r="5.0"/>
  <circle cx="624.0" cy="404.0" r="5.0"/>
  <circle cx="672.0" cy="404.0" r="5.0"/>
</g>
<g fill="#7B7976" fill-opacity="0.39">
  <circle cx="545.0" cy="462.0" r="5.2"/>
  <circle cx="581.7" cy="462.0" r="5.2"/>
  <circle cx="618.3" cy="462.0" r="5.2"/>
  <circle cx="655.0" cy="462.0" r="5.2"/>
</g>
<g fill="#7B7976" fill-opacity="0.42">
  <circle cx="560.0" cy="520.0" r="5.4"/>
  <circle cx="600.0" cy="520.0" r="5.4"/>
  <circle cx="640.0" cy="520.0" r="5.4"/>
</g>
<g fill="#7B7976" fill-opacity="0.44">
  <circle cx="571.0" cy="580.0" r="5.6"/>
  <circle cx="600.0" cy="580.0" r="5.6"/>
  <circle cx="629.0" cy="580.0" r="5.6"/>
</g>
<g fill="#7B7976" fill-opacity="0.47">
  <circle cx="581.0" cy="640.0" r="5.8"/>
  <circle cx="619.0" cy="640.0" r="5.8"/>
</g>
<g fill="#7B7976" fill-opacity="0.50">
  <circle cx="588.0" cy="700.0" r="6.0"/>
  <circle cx="612.0" cy="700.0" r="6.0"/>
</g>
<g fill="#7B7976" fill-opacity="0.52">
  <circle cx="600.0" cy="745.0" r="6.2"/>
</g>
<g fill="#7B7976" fill-opacity="0.55">
  <circle cx="600.0" cy="800.0" r="6.4"/>
</g>
<circle cx="600.0" cy="840" r="15" fill="#C6C4BE"/>
<circle cx="600.0" cy="840" r="9.5" fill="#D2EF15"/>
</svg>
