<svg xmlns="http://www.w3.org/2000/svg" width="1200" height="1200" viewBox="0 0 1200 1200">
<defs><filter id="grain"><feTurbulence type="fractalNoise" baseFrequency="0.9" numOctaves="2" stitchTiles="stitch"/><feColorMatrix type="saturate" values="0"/><feComponentTransfer><feFuncA type="linear" slope="0.06"/></feComponentTransfer></filter></defs>
<rect width="1200" height="1200" fill="#1A1A18"/>
<rect width="1200" height="1200" filter="url(#grain)"/>
<g fill="none" stroke-linecap="butt" stroke-linejoin="miter" stroke-miterlimit="4" shape-rendering="geometricPrecision">
  <path d="M 340.80,420.80 L 341.60,411.65 L 343.99,402.55 L 347.96,393.57 L 353.49,384.76 L 360.53,376.16 L 369.05,367.85 L 379.00,359.86 L 390.30,352.24 L 402.90,345.05 L 416.72,338.32 L 431.66,332.11 L 447.65,326.44 L 464.57,321.35 L 482.33,316.87 L 500.81,313.04 L 519.90,309.87 L 539.49,307.38 L 559.45,305.60 L 579.66,304.52 L 600.00,304.16 L 620.34,304.52 L 640.55,305.60 L 660.51,307.38 L 680.10,309.87 L 699.19,313.04 L 717.67,316.87 L 735.43,321.35 L 752.35,326.44 L 768.34,332.11 L 783.28,338.32 L 797.10,345.05 L 809.70,352.24 L 821.00,359.86 L 830.95,367.85 L 839.47,376.16 L 846.51,384.76 L 852.04,393.57 L 856.01,402.55 L 858.40,411.65 L 859.20,420.80" stroke="#74767c" stroke-width="0.70"/>
  <path d="M 859.20,420.80 L 858.40,429.95 L 856.01,439.05 L 852.04,448.03 L 846.51,456.84 L 839.47,465.44 L 830.95,473.75 L 821.00,481.74 L 809.70,489.36 L 797.10,496.55 L 783.28,503.28 L 768.34,509.49 L 752.35,515.16 L 735.43,520.25 L 717.67,524.73 L 699.19,528.56 L 680.10,531.73 L 660.51,534.22 L 640.55,536.00 L 620.34,537.08 L 600.00,537.44 L 579.66,537.08 L 559.45,536.00 L 539.49,534.22 L 519.90,531.73 L 500.81,528.56 L 482.33,524.73 L 464.57,520.25 L 447.65,515.16 L 431.66,509.49 L 416.72,503.28 L 402.90,496.55 L 390.30,489.36 L 379.00,481.74 L 369.05,473.75 L 360.53,465.44 L 353.49,456.84 L 347.96,448.03 L 343.99,439.05 L 341.60,429.95 L 340.80,420.80" stroke="#74767c" stroke-width="0.70"/>
  <path d="M 376.50,474.00 L 377.19,466.11 L 379.25,458.27 L 382.68,450.52 L 387.44,442.92 L 393.51,435.51 L 400.86,428.34 L 409.43,421.45 L 419.18,414.88 L 430.05,408.68 L 441.96,402.88 L 454.85,397.52 L 468.63,392.63 L 483.22,388.25 L 498.53,384.39 L 514.47,381.08 L 530.93,378.35 L 547.82,376.20 L 565.04,374.66 L 582.46,373.74 L 600.00,373.43 L 617.54,373.74 L 634.96,374.66 L 652.18,376.20 L 669.07,378.35 L 685.53,381.08 L 701.47,384.39 L 716.78,388.25 L 731.37,392.63 L 745.15,397.52 L 758.04,402.88 L 769.95,408.68 L 780.82,414.88 L 790.57,421.45 L 799.14,428.34 L 806.49,435.51 L 812.56,442.92 L 817.32,450.52 L 820.75,458.27 L 822.81,466.11 L 823.50,474.00" stroke="#74767c" stroke-width="0.70"/>
  <path d="M 823.50,474.00 L 822.81,481.89 L 820.75,489.73 L 817.32,497.48 L 812.56,505.08 L 806.49,512.49 L 799.14,519.66 L 790.57,526.55 L 780.82,533.12 L 769.95,539.32 L 758.04,545.12 L 745.15,550.48 L 731.37,555.37 L 716.78,559.75 L 701.47,563.61 L 685.53,566.92 L 669.07,569.65 L 652.18,571.80 L 634.96,573.34 L 617.54,574.26 L 600.00,574.58 L 582.46,574.26 L 565.04,573.34 L 547.82,571.80 L 530.93,569.65 L 514.47,566.92 L 498.53,563.61 L 483.22,559.75 L 468.63,555.37 L 454.85,550.48 L 441.96,545.12 L 430.05,539.32 L 419.18,533.12 L 409.43,526.55 L 400.86,519.66 L 393.51,512.49 L 387.44,505.08 L 382.68,497.48 L 379.25,489.73 L 377.19,481.89 L 376.50,474.00" stroke="#74767c" stroke-width="0.70"/>
  <path d="M 412.20,527.20 L 412.78,520.57 L 414.51,513.98 L 417.39,507.47 L 421.39,501.08 L 426.50,494.86 L 432.67,488.83 L 439.87,483.04 L 448.07,477.53 L 457.20,472.32 L 467.21,467.44 L 478.03,462.94 L 489.61,458.83 L 501.87,455.14 L 514.74,451.90 L 528.13,449.12 L 541.97,446.83 L 556.16,445.03 L 570.62,443.73 L 585.27,442.95 L 600.00,442.69 L 614.73,442.95 L 629.38,443.73 L 643.84,445.03 L 658.03,446.83 L 671.87,449.12 L 685.26,451.90 L 698.13,455.14 L 710.39,458.83 L 721.97,462.94 L 732.79,467.44 L 742.80,472.32 L 751.93,477.53 L 760.13,483.04 L 767.33,488.83 L 773.50,494.86 L 778.61,501.08 L 782.61,507.47 L 785.49,513.98 L 787.22,520.57 L 787.80,527.20" stroke="#74767c" stroke-width="0.70"/>
  <path d="M 787.80,527.20 L 787.22,533.83 L 785.49,540.42 L 782.61,546.93 L 778.61,553.32 L 773.50,559.54 L 767.33,565.57 L 760.13,571.36 L 751.93,576.87 L 742.80,582.08 L 732.79,586.96 L 721.97,591.46 L 710.39,595.57 L 698.13,599.26 L 685.26,602.50 L 671.87,605.28 L 658.03,607.57 L 643.84,609.37 L 629.38,610.67 L 614.73,611.45 L 600.00,611.71 L 585.27,611.45 L 570.62,610.67 L 556.16,609.37 L 541.97,607.57 L 528.13,605.28 L 514.74,602.50 L 501.87,599.26 L 489.61,595.57 L 478.03,591.46 L 467.21,586.96 L 457.20,582.08 L 448.07,576.87 L 439.87,571.36 L 432.67,565.57 L 426.50,559.54 L 421.39,553.32 L 417.39,546.93 L 414.51,540.42 L 412.78,533.83 L 412.20,527.20" stroke="#74767c" stroke-width="0.70"/>
  <path d="M 447.90,580.40 L 448.37,575.03 L 449.77,569.69 L 452.10,564.42 L 455.34,559.25 L 459.48,554.21 L 464.48,549.33 L 470.31,544.64 L 476.95,540.17 L 484.34,535.95 L 492.45,532.00 L 501.22,528.35 L 510.60,525.03 L 520.53,522.04 L 530.95,519.42 L 541.79,517.17 L 553.00,515.30 L 564.49,513.85 L 576.21,512.80 L 588.07,512.17 L 600.00,511.95 L 611.93,512.17 L 623.79,512.80 L 635.51,513.85 L 647.00,515.30 L 658.21,517.17 L 669.05,519.42 L 679.47,522.04 L 689.40,525.03 L 698.78,528.35 L 707.55,532.00 L 715.66,535.95 L 723.05,540.17 L 729.69,544.64 L 735.52,549.33 L 740.52,554.21 L 744.66,559.25 L 747.90,564.42 L 750.23,569.69 L 751.63,575.03 L 752.10,580.40" stroke="#74767c" stroke-width="0.70"/>
  <path d="M 752.10,580.40 L 751.63,585.77 L 750.23,591.11 L 747.90,596.38 L 744.66,601.55 L 740.52,606.59 L 735.52,611.47 L 729.69,616.16 L 723.05,620.63 L 715.66,624.85 L 707.55,628.80 L 698.78,632.45 L 689.40,635.77 L 679.47,638.76 L 669.05,641.38 L 658.21,643.63 L 647.00,645.50 L 635.51,646.95 L 623.79,648.00 L 611.93,648.63 L 600.00,648.85 L 588.07,648.63 L 576.21,648.00 L 564.49,646.95 L 553.00,645.50 L 541.79,643.63 L 530.95,641.38 L 520.53,638.76 L 510.60,635.77 L 501.22,632.45 L 492.45,628.80 L 484.34,624.85 L 476.95,620.63 L 470.31,616.16 L 464.48,611.47 L 459.48,606.59 L 455.34,601.55 L 452.10,596.38 L 449.77,591.11 L 448.37,585.77 L 447.90,580.40" stroke="#74767c" stroke-width="0.70"/>
  <path d="M 483.60,633.60 L 483.96,629.49 L 485.03,625.41 L 486.82,621.37 L 489.30,617.41 L 492.46,613.56 L 496.29,609.82 L 500.75,606.23 L 505.83,602.81 L 511.49,599.58 L 517.69,596.56 L 524.40,593.77 L 531.58,591.22 L 539.18,588.94 L 547.16,586.93 L 555.46,585.21 L 564.03,583.78 L 572.83,582.67 L 581.79,581.86 L 590.87,581.38 L 600.00,581.22 L 609.13,581.38 L 618.21,581.86 L 627.17,582.67 L 635.97,583.78 L 644.54,585.21 L 652.84,586.93 L 660.82,588.94 L 668.42,591.22 L 675.60,593.77 L 682.31,596.56 L 688.51,599.58 L 694.17,602.81 L 699.25,606.23 L 703.71,609.82 L 707.54,613.56 L 710.70,617.41 L 713.18,621.37 L 714.97,625.41 L 716.04,629.49 L 716.40,633.60" stroke="#74767c" stroke-width="0.70"/>
  <path d="M 716.40,633.60 L 716.04,637.71 L 714.97,641.79 L 713.18,645.83 L 710.70,649.79 L 707.54,653.64 L 703.71,657.38 L 699.25,660.97 L 694.17,664.39 L 688.51,667.62 L 682.31,670.64 L 675.60,673.43 L 668.42,675.98 L 660.82,678.26 L 652.84,680.27 L 644.54,681.99 L 635.97,683.42 L 627.17,684.53 L 618.21,685.34 L 609.13,685.82 L 600.00,685.98 L 590.87,685.82 L 581.79,685.34 L 572.83,684.53 L 564.03,683.42 L 555.46,681.99 L 547.16,680.27 L 539.18,678.26 L 531.58,675.98 L 524.40,673.43 L 517.69,670.64 L 511.49,667.62 L 505.83,664.39 L 500.75,660.97 L 496.29,657.38 L 492.46,653.64 L 489.30,649.79 L 486.82,645.83 L 485.03,641.79 L 483.96,637.71 L 483.60,633.60" stroke="#74767c" stroke-width="0.70"/>
  <path d="M 519.30,686.80 L 519.55,683.95 L 520.29,681.12 L 521.53,678.32 L 523.25,675.58 L 525.44,672.90 L 528.10,670.31 L 531.19,667.83 L 534.71,665.45 L 538.64,663.22 L 542.94,661.12 L 547.59,659.19 L 552.57,657.42 L 557.83,655.84 L 563.36,654.44 L 569.12,653.25 L 575.06,652.26 L 581.16,651.49 L 587.38,650.93 L 593.67,650.60 L 600.00,650.48 L 606.33,650.60 L 612.62,650.93 L 618.84,651.49 L 624.94,652.26 L 630.88,653.25 L 636.64,654.44 L 642.17,655.84 L 647.43,657.42 L 652.41,659.19 L 657.06,661.12 L 661.36,663.22 L 665.29,665.45 L 668.81,667.83 L 671.90,670.31 L 674.56,672.90 L 676.75,675.58 L 678.47,678.32 L 679.71,681.12 L 680.45,683.95 L 680.70,686.80" stroke="#74767c" stroke-width="0.70"/>
  <path d="M 680.70,686.80 L 680.45,689.65 L 679.71,692.48 L 678.47,695.28 L 676.75,698.02 L 674.56,700.70 L 671.90,703.29 L 668.81,705.77 L 665.29,708.15 L 661.36,710.38 L 657.06,712.48 L 652.41,714.41 L 647.43,716.18 L 642.17,717.76 L 636.64,719.16 L 630.88,720.35 L 624.94,721.34 L 618.84,722.11 L 612.62,722.67 L 606.33,723.00 L 600.00,723.12 L 593.67,723.00 L 587.38,722.67 L 581.16,722.11 L 575.06,721.34 L 569.12,720.35 L 563.36,719.16 L 557.83,717.76 L 552.57,716.18 L 547.59,714.41 L 542.94,712.48 L 538.64,710.38 L 534.71,708.15 L 531.19,705.77 L 528.10,703.29 L 525.44,700.70 L 523.25,698.02 L 521.53,695.28 L 520.29,692.48 L 519.55,689.65 L 519.30,686.80" stroke="#74767c" stroke-width="0.70"/>
  <path d="M 300.00,360.00 L 300.92,349.41 L 303.69,338.88 L 308.29,328.48 L 314.68,318.28 L 322.84,308.34 L 332.70,298.71 L 344.21,289.46 L 357.29,280.65 L 371.88,272.32 L 387.87,264.54 L 405.17,257.35 L 423.66,250.78 L 443.25,244.89 L 463.80,239.71 L 485.19,235.28 L 507.29,231.61 L 529.97,228.73 L 553.07,226.66 L 576.46,225.42 L 600.00,225.00 L 623.54,225.42 L 646.93,226.66 L 670.03,228.73 L 692.71,231.61 L 714.81,235.28 L 736.20,239.71 L 756.75,244.89 L 776.34,250.78 L 794.83,257.35 L 812.13,264.54 L 828.12,272.32 L 842.71,280.65 L 855.79,289.46 L 867.30,298.71 L 877.16,308.34 L 885.32,318.28 L 891.71,328.48 L 896.31,338.88 L 899.08,349.41 L 900.00,360.00" stroke="#74767c" stroke-width="0.70"/>
  <path d="M 555.00,740.00 L 555.28,737.73 L 556.13,735.49 L 557.53,733.31 L 559.46,731.21 L 561.90,729.23 L 564.82,727.37 L 568.18,725.68 L 571.94,724.17 L 576.06,722.85 L 580.48,721.76 L 585.14,720.89 L 589.99,720.26 L 594.96,719.88 L 600.00,719.75 L 605.04,719.88 L 610.01,720.26 L 614.86,720.89 L 619.52,721.76 L 623.94,722.85 L 628.06,724.17 L 631.82,725.68 L 635.18,727.37 L 638.10,729.23 L 640.54,731.21 L 642.47,733.31 L 643.87,735.49 L 644.72,737.73 L 645.00,740.00" stroke="#74767c" stroke-width="0.70"/>
  <path d="M 300.00,360.00 L 555.00,740.00" stroke="#c2c2c6" stroke-width="0.90"/>
  <path d="M 900.00,360.00 L 645.00,740.00" stroke="#c2c2c6" stroke-width="0.90"/>
  <path d="M 900.00,360.00 L 899.08,370.59 L 896.31,381.12 L 891.71,391.52 L 885.32,401.72 L 877.16,411.66 L 867.30,421.29 L 855.79,430.54 L 842.71,439.35 L 828.12,447.68 L 812.13,455.46 L 794.83,462.65 L 776.34,469.22 L 756.75,475.11 L 736.20,480.29 L 714.81,484.72 L 692.71,488.39 L 670.03,491.27 L 646.93,493.34 L 623.54,494.58 L 600.00,495.00 L 576.46,494.58 L 553.07,493.34 L 529.97,491.27 L 507.29,488.39 L 485.19,484.72 L 463.80,480.29 L 443.25,475.11 L 423.66,469.22 L 405.17,462.65 L 387.87,455.46 L 371.88,447.68 L 357.29,439.35 L 344.21,430.54 L 332.70,421.29 L 322.84,411.66 L 314.68,401.72 L 308.29,391.52 L 303.69,381.12 L 300.92,370.59 L 300.00,360.00" stroke="#c2c2c6" stroke-width="0.90"/>
  <path d="M 645.00,740.00 L 644.72,742.27 L 643.87,744.51 L 642.47,746.69 L 640.54,748.79 L 638.10,750.77 L 635.18,752.63 L 631.82,754.32 L 628.06,755.83 L 623.94,757.15 L 619.52,758.24 L 614.86,759.11 L 610.01,759.74 L 605.04,760.12 L 600.00,760.25 L 594.96,760.12 L 589.99,759.74 L 585.14,759.11 L 580.48,758.24 L 576.06,757.15 L 571.94,755.83 L 568.18,754.32 L 564.82,752.63 L 561.90,750.77 L 559.46,748.79 L 557.53,746.69 L 556.13,744.51 L 555.28,742.27 L 555.00,740.00" stroke="#c2c2c6" stroke-width="0.90"/>
  <path d="M 555.00,740.00 L 576.00,790.00" stroke="#c2c2c6" stroke-width="0.90"/>
  <path d="M 645.00,740.00 L 624.00,790.00" stroke="#c2c2c6" stroke-width="0.90"/>
  <path d="M 624.00,790.00 L 623.79,791.41 L 623.18,792.80 L 622.17,794.13 L 620.78,795.40 L 619.04,796.57 L 616.97,797.64 L 614.61,798.57 L 612.00,799.35 L 609.18,799.98 L 606.21,800.43 L 603.13,800.71 L 600.00,800.80 L 596.87,800.71 L 593.79,800.43 L 590.82,799.98 L 588.00,799.35 L 585.39,798.57 L 583.03,797.64 L 580.96,796.57 L 579.22,795.40 L 577.83,794.13 L 576.82,792.80 L 576.21,791.41 L 576.00,790.00" stroke="#c2c2c6" stroke-width="0.90"/>
</g>
<circle cx="422.00" cy="232.00" r="4.00" fill="#5c5c62"/>
<circle cx="481.33" cy="232.00" r="4.00" fill="#5c5c62"/>
<circle cx="540.67" cy="232.00" r="4.00" fill="#5c5c62"/>
<circle cx="600.00" cy="232.00" r="4.00" fill="#5c5c62"/>
<circle cx="659.33" cy="232.00" r="4.00" fill="#5c5c62"/>
<circle cx="718.67" cy="232.00" r="4.00" fill="#5c5c62"/>
<circle cx="778.00" cy="232.00" r="4.00" fill="#5c5c62"/>
<circle cx="450.00" cy="268.00" r="4.20" fill="#64646a"/>
<circle cx="510.00" cy="268.00" r="4.20" fill="#64646a"/>
<circle cx="570.00" cy="268.00" r="4.20" fill="#64646a"/>
<circle cx="630.00" cy="268.00" r="4.20" fill="#64646a"/>
<circle cx="690.00" cy="268.00" r="4.20" fill="#64646a"/>
<circle cx="750.00" cy="268.00" r="4.20" fill="#64646a"/>
<circle cx="478.00" cy="304.00" r="4.30" fill="#6f6f76"/>
<circle cx="539.00" cy="304.00" r="4.30" fill="#6f6f76"/>
<circle cx="600.00" cy="304.00" r="4.30" fill="#6f6f76"/>
<circle cx="661.00" cy="304.00" r="4.30" fill="#6f6f76"/>
<circle cx="722.00" cy="304.00" r="4.30" fill="#6f6f76"/>
<circle cx="504.00" cy="348.00" r="4.40" fill="#7b7d83"/>
<circle cx="552.00" cy="348.00" r="4.40" fill="#7b7d83"/>
<circle cx="600.00" cy="348.00" r="4.40" fill="#7b7d83"/>
<circle cx="648.00" cy="348.00" r="4.40" fill="#7b7d83"/>
<circle cx="696.00" cy="348.00" r="4.40" fill="#7b7d83"/>
<circle cx="528.00" cy="404.00" r="4.50" fill="#868990"/>
<circle cx="576.00" cy="404.00" r="4.50" fill="#868990"/>
<circle cx="624.00" cy="404.00" r="4.50" fill="#868990"/>
<circle cx="672.00" cy="404.00" r="4.50" fill="#868990"/>
<circle cx="545.00" cy="462.00" r="4.60" fill="#94969c"/>
<circle cx="581.67" cy="462.00" r="4.60" fill="#94969c"/>
<circle cx="618.33" cy="462.00" r="4.60" fill="#94969c"/>
<circle cx="655.00" cy="462.00" r="4.60" fill="#94969c"/>
<circle cx="560.00" cy="520.00" r="4.70" fill="#a4a7ad"/>
<circle cx="600.00" cy="520.00" r="4.70" fill="#a4a7ad"/>
<circle cx="640.00" cy="520.00" r="4.70" fill="#a4a7ad"/>
<circle cx="571.00" cy="580.00" r="4.80" fill="#b4b6ba"/>
<circle cx="600.00" cy="580.00" r="4.80" fill="#b4b6ba"/>
<circle cx="629.00" cy="580.00" r="4.80" fill="#b4b6ba"/>
<circle cx="581.00" cy="640.00" r="5.00" fill="#c4c5c2"/>
<circle cx="619.00" cy="640.00" r="5.00" fill="#c4c5c2"/>
<circle cx="588.00" cy="700.00" r="5.20" fill="#d4d4cf"/>
<circle cx="612.00" cy="700.00" r="5.20" fill="#d4d4cf"/>
<circle cx="600.00" cy="745.00" r="5.40" fill="#e2e2de"/>
<circle cx="600.00" cy="800.00" r="5.60" fill="#ededeb"/>
<circle cx="600.00" cy="840.00" r="12.00" fill="#1A1A18"/>
<circle cx="600.00" cy="840.00" r="9.50" fill="#D2EF15"/>
</svg>