<svg xmlns="http://www.w3.org/2000/svg" width="1200" height="1200" viewBox="0 0 1200 1200"><defs><filter id="grain"><feTurbulence type="fractalNoise" baseFrequency="0.9" numOctaves="2" stitchTiles="stitch"/><feColorMatrix type="saturate" values="0"/><feComponentTransfer><feFuncA type="linear" slope="0.06"/></feComponentTransfer></filter><pattern id="pX" width="4" height="4" patternUnits="userSpaceOnUse"><circle cx="2.00" cy="2.00" r="1.05" fill="#cfd1d6" fill-opacity="0.62"/></pattern><pattern id="pA" width="5" height="5" patternUnits="userSpaceOnUse"><circle cx="2.50" cy="2.50" r="1.05" fill="#cfd1d6" fill-opacity="0.55"/></pattern><pattern id="pB" width="8" height="8" patternUnits="userSpaceOnUse"><circle cx="4.00" cy="4.00" r="1.0" fill="#cfd1d6" fill-opacity="0.42"/></pattern><pattern id="pC" width="12" height="12" patternUnits="userSpaceOnUse"><circle cx="6.00" cy="6.00" r="0.95" fill="#cfd1d6" fill-opacity="0.3"/></pattern><pattern id="pE" width="16" height="16" patternUnits="userSpaceOnUse"><circle cx="8.00" cy="8.00" r="0.9" fill="#cfd1d6" fill-opacity="0.22"/></pattern></defs><rect width="1200" height="1200" fill="#1A1A18"/><rect width="1200" height="1200" filter="url(#grain)"/><g stroke="#868990" stroke-width="0.7" stroke-opacity="0.07" stroke-linecap="butt"><line x1="250" y1="235" x2="250" y2="965"/><line x1="367" y1="235" x2="367" y2="965"/><line x1="483" y1="235" x2="483" y2="965"/><line x1="600" y1="235" x2="600" y2="965"/><line x1="717" y1="235" x2="717" y2="965"/><line x1="833" y1="235" x2="833" y2="965"/><line x1="950" y1="235" x2="950" y2="965"/></g><rect x="250" y="235" width="700" height="730" fill="#cfd1d6" fill-opacity="0.025" stroke="#868990" stroke-width="1.0" stroke-opacity="0.26" stroke-linejoin="miter" stroke-miterlimit="4"/><rect x="285" y="272" width="455" height="52" fill="#cfd1d6" fill-opacity="0.05" stroke="#868990" stroke-width="1.0" stroke-opacity="0.34" stroke-linejoin="miter" stroke-miterlimit="4"/><line x1="790" y1="290" x2="910" y2="290" stroke="#868990" stroke-width="2.0" stroke-opacity="0.45" stroke-linecap="butt"/><line x1="790" y1="306" x2="885" y2="306" stroke="#868990" stroke-width="2.0" stroke-opacity="0.45" stroke-linecap="butt"/><rect x="287" y="358" width="466" height="176" fill="url(#pB)"/><rect x="285" y="356" width="470" height="180" fill="none" stroke="#e8e8ea" stroke-width="1.3" stroke-opacity="0.85" stroke-linejoin="miter" stroke-miterlimit="4" shape-rendering="geometricPrecision"/><rect x="217" y="472" width="96" height="326" fill="url(#pC)"/><rect x="215" y="470" width="100" height="330" fill="#cfd1d6" fill-opacity="0.05" stroke="#868990" stroke-width="1.0" stroke-opacity="0.3" stroke-linejoin="miter" stroke-miterlimit="4"/><rect x="400" y="566" width="150" height="150" fill="none" stroke="#868990" stroke-width="1.1" stroke-opacity="0.55" stroke-linejoin="miter" stroke-miterlimit="4" shape-rendering="geometricPrecision"/><rect x="572" y="568" width="181" height="146" fill="url(#pC)"/><rect x="570" y="566" width="185" height="150" fill="none" stroke="#868990" stroke-width="1.1" stroke-opacity="0.55" stroke-linejoin="miter" stroke-miterlimit="4" shape-rendering="geometricPrecision"/><line x1="400" y1="760" x2="750" y2="760" stroke="#868990" stroke-width="1.6" stroke-opacity="0.42" stroke-linecap="butt"/><line x1="400" y1="777" x2="750" y2="777" stroke="#868990" stroke-width="1.6" stroke-opacity="0.42" stroke-linecap="butt"/><line x1="400" y1="794" x2="720" y2="794" stroke="#868990" stroke-width="1.6" stroke-opacity="0.42" stroke-linecap="butt"/><line x1="400" y1="811" x2="690" y2="811" stroke="#868990" stroke-width="1.6" stroke-opacity="0.42" stroke-linecap="butt"/><line x1="400" y1="828" x2="610" y2="828" stroke="#868990" stroke-width="1.6" stroke-opacity="0.42" stroke-linecap="butt"/><rect x="600" y="212" width="165" height="520" fill="#cfd1d6" fill-opacity="0.05" stroke="#868990" stroke-width="1.0" stroke-opacity="0.22" stroke-linejoin="miter" stroke-miterlimit="4"/><circle cx="748" cy="572" r="5" fill="#D2EF15"/></svg>