<svg xmlns="http://www.w3.org/2000/svg" width="1200" height="1200" viewBox="0 0 1200 1200">
<rect width="1200" height="1200" fill="#C6C4BE"/>
<g stroke="#7B7976" stroke-opacity="0.5" stroke-width="2.60" stroke-linecap="butt" stroke-linejoin="miter" fill="none" shape-rendering="geometricPrecision">
  <line x1="580.00" y1="264.64" x2="299.57" y2="750.36"/>
  <line x1="319.57" y1="785.00" x2="880.43" y2="785.00"/>
  <line x1="900.43" y1="750.36" x2="620.00" y2="264.64"/>
  <line x1="282.23" y1="688.39" x2="517.66" y2="280.61"/>
  <line x1="517.66" y1="280.61" x2="503.91" y2="290.60"/>
  <line x1="517.66" y1="280.61" x2="515.89" y2="297.52"/>
  <line x1="682.34" y1="280.61" x2="917.77" y2="688.39"/>
  <line x1="917.77" y1="688.39" x2="915.99" y2="671.48"/>
  <line x1="917.77" y1="688.39" x2="904.01" y2="678.40"/>
  <line x1="835.43" y1="831.00" x2="364.57" y2="831.00"/>
  <line x1="364.57" y1="831.00" x2="380.10" y2="837.91"/>
  <line x1="364.57" y1="831.00" x2="380.10" y2="824.09"/>
  <line x1="600.00" y1="482.00" x2="600.00" y2="378.00"/>
  <line x1="600.00" y1="482.00" x2="606.91" y2="466.47"/>
  <line x1="600.00" y1="482.00" x2="593.09" y2="466.47"/>
  <line x1="491.88" y1="662.43" x2="401.81" y2="714.43"/>
  <line x1="491.88" y1="662.43" x2="474.97" y2="664.20"/>
  <line x1="491.88" y1="662.43" x2="481.88" y2="676.18"/>
  <line x1="693.75" y1="654.12" x2="783.81" y2="706.12"/>
  <line x1="783.81" y1="706.12" x2="773.82" y2="692.37"/>
  <line x1="783.81" y1="706.12" x2="766.91" y2="704.35"/>
</g>
<g fill="#7B7976" opacity="0.30">
  <circle cx="557.20" cy="504.00" r="1.35"/>
  <circle cx="539.20" cy="510.00" r="1.35"/>
  <circle cx="545.20" cy="510.00" r="1.35"/>
  <circle cx="551.20" cy="510.00" r="1.35"/>
  <circle cx="557.20" cy="510.00" r="1.35"/>
  <circle cx="563.20" cy="510.00" r="1.35"/>
  <circle cx="569.20" cy="510.00" r="1.35"/>
  <circle cx="575.20" cy="510.00" r="1.35"/>
  <circle cx="533.20" cy="516.00" r="1.35"/>
  <circle cx="539.20" cy="516.00" r="1.35"/>
  <circle cx="545.20" cy="516.00" r="1.35"/>
  <circle cx="551.20" cy="516.00" r="1.35"/>
  <circle cx="557.20" cy="516.00" r="1.35"/>
  <circle cx="563.20" cy="516.00" r="1.35"/>
  <circle cx="569.20" cy="516.00" r="1.35"/>
  <circle cx="575.20" cy="516.00" r="1.35"/>
  <circle cx="581.20" cy="516.00" r="1.35"/>
  <circle cx="533.20" cy="522.00" r="1.35"/>
  <circle cx="539.20" cy="522.00" r="1.35"/>
  <circle cx="545.20" cy="522.00" r="1.35"/>
  <circle cx="551.20" cy="522.00" r="1.35"/>
  <circle cx="557.20" cy="522.00" r="1.35"/>
  <circle cx="563.20" cy="522.00" r="1.35"/>
  <circle cx="569.20" cy="522.00" r="1.35"/>
  <circle cx="575.20" cy="522.00" r="1.35"/>
  <circle cx="581.20" cy="522.00" r="1.35"/>
  <circle cx="587.20" cy="522.00" r="1.35"/>
  <circle cx="593.20" cy="522.00" r="1.35"/>
  <circle cx="533.20" cy="528.00" r="1.35"/>
  <circle cx="539.20" cy="528.00" r="1.35"/>
  <circle cx="545.20" cy="528.00" r="1.35"/>
  <circle cx="551.20" cy="528.00" r="1.35"/>
  <circle cx="557.20" cy="528.00" r="1.35"/>
  <circle cx="563.20" cy="528.00" r="1.35"/>
  <circle cx="569.20" cy="528.00" r="1.35"/>
  <circle cx="575.20" cy="528.00" r="1.35"/>
  <circle cx="581.20" cy="528.00" r="1.35"/>
  <circle cx="587.20" cy="528.00" r="1.35"/>
  <circle cx="593.20" cy="528.00" r="1.35"/>
  <circle cx="599.20" cy="528.00" r="1.35"/>
  <circle cx="527.20" cy="534.00" r="1.35"/>
  <circle cx="533.20" cy="534.00" r="1.35"/>
  <circle cx="539.20" cy="534.00" r="1.35"/>
  <circle cx="545.20" cy="534.00" r="1.35"/>
  <circle cx="551.20" cy="534.00" r="1.35"/>
  <circle cx="557.20" cy="534.00" r="1.35"/>
  <circle cx="563.20" cy="534.00" r="1.35"/>
  <circle cx="569.20" cy="534.00" r="1.35"/>
  <circle cx="575.20" cy="534.00" r="1.35"/>
  <circle cx="581.20" cy="534.00" r="1.35"/>
  <circle cx="587.20" cy="534.00" r="1.35"/>
  <circle cx="593.20" cy="534.00" r="1.35"/>
  <circle cx="599.20" cy="534.00" r="1.35"/>
  <circle cx="605.20" cy="534.00" r="1.35"/>
  <circle cx="611.20" cy="534.00" r="1.35"/>
  <circle cx="533.20" cy="540.00" r="1.35"/>
  <circle cx="539.20" cy="540.00" r="1.35"/>
  <circle cx="545.20" cy="540.00" r="1.35"/>
  <circle cx="551.20" cy="540.00" r="1.35"/>
  <circle cx="557.20" cy="540.00" r="1.35"/>
  <circle cx="563.20" cy="540.00" r="1.35"/>
  <circle cx="569.20" cy="540.00" r="1.35"/>
  <circle cx="575.20" cy="540.00" r="1.35"/>
  <circle cx="581.20" cy="540.00" r="1.35"/>
  <circle cx="587.20" cy="540.00" r="1.35"/>
  <circle cx="593.20" cy="540.00" r="1.35"/>
  <circle cx="599.20" cy="540.00" r="1.35"/>
  <circle cx="605.20" cy="540.00" r="1.35"/>
  <circle cx="611.20" cy="540.00" r="1.35"/>
  <circle cx="617.20" cy="540.00" r="1.35"/>
  <circle cx="533.20" cy="546.00" r="1.35"/>
  <circle cx="539.20" cy="546.00" r="1.35"/>
  <circle cx="545.20" cy="546.00" r="1.35"/>
  <circle cx="551.20" cy="546.00" r="1.35"/>
  <circle cx="557.20" cy="546.00" r="1.35"/>
  <circle cx="563.20" cy="546.00" r="1.35"/>
  <circle cx="569.20" cy="546.00" r="1.35"/>
  <circle cx="575.20" cy="546.00" r="1.35"/>
  <circle cx="581.20" cy="546.00" r="1.35"/>
  <circle cx="587.20" cy="546.00" r="1.35"/>
  <circle cx="593.20" cy="546.00" r="1.35"/>
  <circle cx="599.20" cy="546.00" r="1.35"/>
  <circle cx="605.20" cy="546.00" r="1.35"/>
  <circle cx="611.20" cy="546.00" r="1.35"/>
  <circle cx="617.20" cy="546.00" r="1.35"/>
  <circle cx="623.20" cy="546.00" r="1.35"/>
  <circle cx="629.20" cy="546.00" r="1.35"/>
  <circle cx="533.20" cy="552.00" r="1.35"/>
  <circle cx="539.20" cy="552.00" r="1.35"/>
  <circle cx="545.20" cy="552.00" r="1.35"/>
  <circle cx="551.20" cy="552.00" r="1.35"/>
  <circle cx="557.20" cy="552.00" r="1.35"/>
  <circle cx="563.20" cy="552.00" r="1.35"/>
  <circle cx="569.20" cy="552.00" r="1.35"/>
  <circle cx="575.20" cy="552.00" r="1.35"/>
  <circle cx="581.20" cy="552.00" r="1.35"/>
  <circle cx="587.20" cy="552.00" r="1.35"/>
  <circle cx="593.20" cy="552.00" r="1.35"/>
  <circle cx="599.20" cy="552.00" r="1.35"/>
  <circle cx="605.20" cy="552.00" r="1.35"/>
  <circle cx="611.20" cy="552.00" r="1.35"/>
  <circle cx="617.20" cy="552.00" r="1.35"/>
  <circle cx="623.20" cy="552.00" r="1.35"/>
  <circle cx="629.20" cy="552.00" r="1.35"/>
  <circle cx="635.20" cy="552.00" r="1.35"/>
  <circle cx="641.20" cy="552.00" r="1.35"/>
  <circle cx="539.20" cy="558.00" r="1.35"/>
  <circle cx="545.20" cy="558.00" r="1.35"/>
  <circle cx="551.20" cy="558.00" r="1.35"/>
  <circle cx="557.20" cy="558.00" r="1.35"/>
  <circle cx="563.20" cy="558.00" r="1.35"/>
  <circle cx="569.20" cy="558.00" r="1.35"/>
  <circle cx="575.20" cy="558.00" r="1.35"/>
  <circle cx="581.20" cy="558.00" r="1.35"/>
  <circle cx="587.20" cy="558.00" r="1.35"/>
  <circle cx="593.20" cy="558.00" r="1.35"/>
  <circle cx="599.20" cy="558.00" r="1.35"/>
  <circle cx="605.20" cy="558.00" r="1.35"/>
  <circle cx="611.20" cy="558.00" r="1.35"/>
  <circle cx="617.20" cy="558.00" r="1.35"/>
  <circle cx="623.20" cy="558.00" r="1.35"/>
  <circle cx="629.20" cy="558.00" r="1.35"/>
  <circle cx="635.20" cy="558.00" r="1.35"/>
  <circle cx="641.20" cy="558.00" r="1.35"/>
  <circle cx="647.20" cy="558.00" r="1.35"/>
  <circle cx="551.20" cy="564.00" r="1.35"/>
  <circle cx="557.20" cy="564.00" r="1.35"/>
  <circle cx="563.20" cy="564.00" r="1.35"/>
  <circle cx="569.20" cy="564.00" r="1.35"/>
  <circle cx="575.20" cy="564.00" r="1.35"/>
  <circle cx="581.20" cy="564.00" r="1.35"/>
  <circle cx="587.20" cy="564.00" r="1.35"/>
  <circle cx="593.20" cy="564.00" r="1.35"/>
  <circle cx="599.20" cy="564.00" r="1.35"/>
  <circle cx="605.20" cy="564.00" r="1.35"/>
  <circle cx="611.20" cy="564.00" r="1.35"/>
  <circle cx="617.20" cy="564.00" r="1.35"/>
  <circle cx="623.20" cy="564.00" r="1.35"/>
  <circle cx="629.20" cy="564.00" r="1.35"/>
  <circle cx="635.20" cy="564.00" r="1.35"/>
  <circle cx="641.20" cy="564.00" r="1.35"/>
  <circle cx="647.20" cy="564.00" r="1.35"/>
  <circle cx="653.20" cy="564.00" r="1.35"/>
  <circle cx="659.20" cy="564.00" r="1.35"/>
  <circle cx="563.20" cy="570.00" r="1.35"/>
  <circle cx="569.20" cy="570.00" r="1.35"/>
  <circle cx="575.20" cy="570.00" r="1.35"/>
  <circle cx="581.20" cy="570.00" r="1.35"/>
  <circle cx="587.20" cy="570.00" r="1.35"/>
  <circle cx="593.20" cy="570.00" r="1.35"/>
  <circle cx="599.20" cy="570.00" r="1.35"/>
  <circle cx="605.20" cy="570.00" r="1.35"/>
  <circle cx="611.20" cy="570.00" r="1.35"/>
  <circle cx="617.20" cy="570.00" r="1.35"/>
  <circle cx="623.20" cy="570.00" r="1.35"/>
  <circle cx="629.20" cy="570.00" r="1.35"/>
  <circle cx="635.20" cy="570.00" r="1.35"/>
  <circle cx="641.20" cy="570.00" r="1.35"/>
  <circle cx="647.20" cy="570.00" r="1.35"/>
  <circle cx="653.20" cy="570.00" r="1.35"/>
  <circle cx="659.20" cy="570.00" r="1.35"/>
  <circle cx="665.20" cy="570.00" r="1.35"/>
  <circle cx="569.20" cy="576.00" r="1.35"/>
  <circle cx="575.20" cy="576.00" r="1.35"/>
  <circle cx="581.20" cy="576.00" r="1.35"/>
  <circle cx="587.20" cy="576.00" r="1.35"/>
  <circle cx="593.20" cy="576.00" r="1.35"/>
  <circle cx="599.20" cy="576.00" r="1.35"/>
  <circle cx="605.20" cy="576.00" r="1.35"/>
  <circle cx="611.20" cy="576.00" r="1.35"/>
  <circle cx="617.20" cy="576.00" r="1.35"/>
  <circle cx="623.20" cy="576.00" r="1.35"/>
  <circle cx="629.20" cy="576.00" r="1.35"/>
  <circle cx="635.20" cy="576.00" r="1.35"/>
  <circle cx="641.20" cy="576.00" r="1.35"/>
  <circle cx="647.20" cy="576.00" r="1.35"/>
  <circle cx="653.20" cy="576.00" r="1.35"/>
  <circle cx="659.20" cy="576.00" r="1.35"/>
  <circle cx="665.20" cy="576.00" r="1.35"/>
  <circle cx="671.20" cy="576.00" r="1.35"/>
  <circle cx="677.20" cy="576.00" r="1.35"/>
  <circle cx="581.20" cy="582.00" r="1.35"/>
  <circle cx="587.20" cy="582.00" r="1.35"/>
  <circle cx="593.20" cy="582.00" r="1.35"/>
  <circle cx="599.20" cy="582.00" r="1.35"/>
  <circle cx="605.20" cy="582.00" r="1.35"/>
  <circle cx="611.20" cy="582.00" r="1.35"/>
  <circle cx="617.20" cy="582.00" r="1.35"/>
  <circle cx="623.20" cy="582.00" r="1.35"/>
  <circle cx="629.20" cy="582.00" r="1.35"/>
  <circle cx="635.20" cy="582.00" r="1.35"/>
  <circle cx="641.20" cy="582.00" r="1.35"/>
  <circle cx="647.20" cy="582.00" r="1.35"/>
  <circle cx="653.20" cy="582.00" r="1.35"/>
  <circle cx="659.20" cy="582.00" r="1.35"/>
  <circle cx="665.20" cy="582.00" r="1.35"/>
  <circle cx="671.20" cy="582.00" r="1.35"/>
  <circle cx="677.20" cy="582.00" r="1.35"/>
  <circle cx="683.20" cy="582.00" r="1.35"/>
  <circle cx="587.20" cy="588.00" r="1.35"/>
  <circle cx="593.20" cy="588.00" r="1.35"/>
  <circle cx="599.20" cy="588.00" r="1.35"/>
  <circle cx="605.20" cy="588.00" r="1.35"/>
  <circle cx="611.20" cy="588.00" r="1.35"/>
  <circle cx="617.20" cy="588.00" r="1.35"/>
  <circle cx="623.20" cy="588.00" r="1.35"/>
  <circle cx="629.20" cy="588.00" r="1.35"/>
  <circle cx="635.20" cy="588.00" r="1.35"/>
  <circle cx="641.20" cy="588.00" r="1.35"/>
  <circle cx="647.20" cy="588.00" r="1.35"/>
  <circle cx="653.20" cy="588.00" r="1.35"/>
  <circle cx="659.20" cy="588.00" r="1.35"/>
  <circle cx="665.20" cy="588.00" r="1.35"/>
  <circle cx="671.20" cy="588.00" r="1.35"/>
  <circle cx="677.20" cy="588.00" r="1.35"/>
  <circle cx="683.20" cy="588.00" r="1.35"/>
  <circle cx="599.20" cy="594.00" r="1.35"/>
  <circle cx="605.20" cy="594.00" r="1.35"/>
  <circle cx="611.20" cy="594.00" r="1.35"/>
  <circle cx="617.20" cy="594.00" r="1.35"/>
  <circle cx="623.20" cy="594.00" r="1.35"/>
  <circle cx="629.20" cy="594.00" r="1.35"/>
  <circle cx="635.20" cy="594.00" r="1.35"/>
  <circle cx="641.20" cy="594.00" r="1.35"/>
  <circle cx="647.20" cy="594.00" r="1.35"/>
  <circle cx="653.20" cy="594.00" r="1.35"/>
  <circle cx="659.20" cy="594.00" r="1.35"/>
  <circle cx="665.20" cy="594.00" r="1.35"/>
  <circle cx="671.20" cy="594.00" r="1.35"/>
  <circle cx="677.20" cy="594.00" r="1.35"/>
  <circle cx="683.20" cy="594.00" r="1.35"/>
  <circle cx="689.20" cy="594.00" r="1.35"/>
  <circle cx="611.20" cy="600.00" r="1.35"/>
  <circle cx="617.20" cy="600.00" r="1.35"/>
  <circle cx="623.20" cy="600.00" r="1.35"/>
  <circle cx="629.20" cy="600.00" r="1.35"/>
  <circle cx="635.20" cy="600.00" r="1.35"/>
  <circle cx="641.20" cy="600.00" r="1.35"/>
  <circle cx="647.20" cy="600.00" r="1.35"/>
  <circle cx="653.20" cy="600.00" r="1.35"/>
  <circle cx="659.20" cy="600.00" r="1.35"/>
  <circle cx="665.20" cy="600.00" r="1.35"/>
  <circle cx="671.20" cy="600.00" r="1.35"/>
  <circle cx="677.20" cy="600.00" r="1.35"/>
  <circle cx="683.20" cy="600.00" r="1.35"/>
  <circle cx="689.20" cy="600.00" r="1.35"/>
  <circle cx="599.20" cy="606.00" r="1.35"/>
  <circle cx="605.20" cy="606.00" r="1.35"/>
  <circle cx="611.20" cy="606.00" r="1.35"/>
  <circle cx="617.20" cy="606.00" r="1.35"/>
  <circle cx="623.20" cy="606.00" r="1.35"/>
  <circle cx="629.20" cy="606.00" r="1.35"/>
  <circle cx="635.20" cy="606.00" r="1.35"/>
  <circle cx="641.20" cy="606.00" r="1.35"/>
  <circle cx="647.20" cy="606.00" r="1.35"/>
  <circle cx="653.20" cy="606.00" r="1.35"/>
  <circle cx="659.20" cy="606.00" r="1.35"/>
  <circle cx="665.20" cy="606.00" r="1.35"/>
  <circle cx="671.20" cy="606.00" r="1.35"/>
  <circle cx="677.20" cy="606.00" r="1.35"/>
  <circle cx="683.20" cy="606.00" r="1.35"/>
  <circle cx="689.20" cy="606.00" r="1.35"/>
  <circle cx="587.20" cy="612.00" r="1.35"/>
  <circle cx="593.20" cy="612.00" r="1.35"/>
  <circle cx="599.20" cy="612.00" r="1.35"/>
  <circle cx="605.20" cy="612.00" r="1.35"/>
  <circle cx="611.20" cy="612.00" r="1.35"/>
  <circle cx="617.20" cy="612.00" r="1.35"/>
  <circle cx="623.20" cy="612.00" r="1.35"/>
  <circle cx="629.20" cy="612.00" r="1.35"/>
  <circle cx="635.20" cy="612.00" r="1.35"/>
  <circle cx="641.20" cy="612.00" r="1.35"/>
  <circle cx="647.20" cy="612.00" r="1.35"/>
  <circle cx="653.20" cy="612.00" r="1.35"/>
  <circle cx="659.20" cy="612.00" r="1.35"/>
  <circle cx="665.20" cy="612.00" r="1.35"/>
  <circle cx="671.20" cy="612.00" r="1.35"/>
  <circle cx="677.20" cy="612.00" r="1.35"/>
  <circle cx="683.20" cy="612.00" r="1.35"/>
  <circle cx="581.20" cy="618.00" r="1.35"/>
  <circle cx="587.20" cy="618.00" r="1.35"/>
  <circle cx="593.20" cy="618.00" r="1.35"/>
  <circle cx="599.20" cy="618.00" r="1.35"/>
  <circle cx="605.20" cy="618.00" r="1.35"/>
  <circle cx="611.20" cy="618.00" r="1.35"/>
  <circle cx="617.20" cy="618.00" r="1.35"/>
  <circle cx="623.20" cy="618.00" r="1.35"/>
  <circle cx="629.20" cy="618.00" r="1.35"/>
  <circle cx="635.20" cy="618.00" r="1.35"/>
  <circle cx="641.20" cy="618.00" r="1.35"/>
  <circle cx="647.20" cy="618.00" r="1.35"/>
  <circle cx="653.20" cy="618.00" r="1.35"/>
  <circle cx="659.20" cy="618.00" r="1.35"/>
  <circle cx="665.20" cy="618.00" r="1.35"/>
  <circle cx="671.20" cy="618.00" r="1.35"/>
  <circle cx="677.20" cy="618.00" r="1.35"/>
  <circle cx="683.20" cy="618.00" r="1.35"/>
  <circle cx="569.20" cy="624.00" r="1.35"/>
  <circle cx="575.20" cy="624.00" r="1.35"/>
  <circle cx="581.20" cy="624.00" r="1.35"/>
  <circle cx="587.20" cy="624.00" r="1.35"/>
  <circle cx="593.20" cy="624.00" r="1.35"/>
  <circle cx="599.20" cy="624.00" r="1.35"/>
  <circle cx="605.20" cy="624.00" r="1.35"/>
  <circle cx="611.20" cy="624.00" r="1.35"/>
  <circle cx="617.20" cy="624.00" r="1.35"/>
  <circle cx="623.20" cy="624.00" r="1.35"/>
  <circle cx="629.20" cy="624.00" r="1.35"/>
  <circle cx="635.20" cy="624.00" r="1.35"/>
  <circle cx="641.20" cy="624.00" r="1.35"/>
  <circle cx="647.20" cy="624.00" r="1.35"/>
  <circle cx="653.20" cy="624.00" r="1.35"/>
  <circle cx="659.20" cy="624.00" r="1.35"/>
  <circle cx="665.20" cy="624.00" r="1.35"/>
  <circle cx="671.20" cy="624.00" r="1.35"/>
  <circle cx="677.20" cy="624.00" r="1.35"/>
  <circle cx="563.20" cy="630.00" r="1.35"/>
  <circle cx="569.20" cy="630.00" r="1.35"/>
  <circle cx="575.20" cy="630.00" r="1.35"/>
  <circle cx="581.20" cy="630.00" r="1.35"/>
  <circle cx="587.20" cy="630.00" r="1.35"/>
  <circle cx="593.20" cy="630.00" r="1.35"/>
  <circle cx="599.20" cy="630.00" r="1.35"/>
  <circle cx="605.20" cy="630.00" r="1.35"/>
  <circle cx="611.20" cy="630.00" r="1.35"/>
  <circle cx="617.20" cy="630.00" r="1.35"/>
  <circle cx="623.20" cy="630.00" r="1.35"/>
  <circle cx="629.20" cy="630.00" r="1.35"/>
  <circle cx="635.20" cy="630.00" r="1.35"/>
  <circle cx="641.20" cy="630.00" r="1.35"/>
  <circle cx="647.20" cy="630.00" r="1.35"/>
  <circle cx="653.20" cy="630.00" r="1.35"/>
  <circle cx="659.20" cy="630.00" r="1.35"/>
  <circle cx="665.20" cy="630.00" r="1.35"/>
  <circle cx="551.20" cy="636.00" r="1.35"/>
  <circle cx="557.20" cy="636.00" r="1.35"/>
  <circle cx="563.20" cy="636.00" r="1.35"/>
  <circle cx="569.20" cy="636.00" r="1.35"/>
  <circle cx="575.20" cy="636.00" r="1.35"/>
  <circle cx="581.20" cy="636.00" r="1.35"/>
  <circle cx="587.20" cy="636.00" r="1.35"/>
  <circle cx="593.20" cy="636.00" r="1.35"/>
  <circle cx="599.20" cy="636.00" r="1.35"/>
  <circle cx="605.20" cy="636.00" r="1.35"/>
  <circle cx="611.20" cy="636.00" r="1.35"/>
  <circle cx="617.20" cy="636.00" r="1.35"/>
  <circle cx="623.20" cy="636.00" r="1.35"/>
  <circle cx="629.20" cy="636.00" r="1.35"/>
  <circle cx="635.20" cy="636.00" r="1.35"/>
  <circle cx="641.20" cy="636.00" r="1.35"/>
  <circle cx="647.20" cy="636.00" r="1.35"/>
  <circle cx="653.20" cy="636.00" r="1.35"/>
  <circle cx="659.20" cy="636.00" r="1.35"/>
  <circle cx="539.20" cy="642.00" r="1.35"/>
  <circle cx="545.20" cy="642.00" r="1.35"/>
  <circle cx="551.20" cy="642.00" r="1.35"/>
  <circle cx="557.20" cy="642.00" r="1.35"/>
  <circle cx="563.20" cy="642.00" r="1.35"/>
  <circle cx="569.20" cy="642.00" r="1.35"/>
  <circle cx="575.20" cy="642.00" r="1.35"/>
  <circle cx="581.20" cy="642.00" r="1.35"/>
  <circle cx="587.20" cy="642.00" r="1.35"/>
  <circle cx="593.20" cy="642.00" r="1.35"/>
  <circle cx="599.20" cy="642.00" r="1.35"/>
  <circle cx="605.20" cy="642.00" r="1.35"/>
  <circle cx="611.20" cy="642.00" r="1.35"/>
  <circle cx="617.20" cy="642.00" r="1.35"/>
  <circle cx="623.20" cy="642.00" r="1.35"/>
  <circle cx="629.20" cy="642.00" r="1.35"/>
  <circle cx="635.20" cy="642.00" r="1.35"/>
  <circle cx="641.20" cy="642.00" r="1.35"/>
  <circle cx="647.20" cy="642.00" r="1.35"/>
  <circle cx="533.20" cy="648.00" r="1.35"/>
  <circle cx="539.20" cy="648.00" r="1.35"/>
  <circle cx="545.20" cy="648.00" r="1.35"/>
  <circle cx="551.20" cy="648.00" r="1.35"/>
  <circle cx="557.20" cy="648.00" r="1.35"/>
  <circle cx="563.20" cy="648.00" r="1.35"/>
  <circle cx="569.20" cy="648.00" r="1.35"/>
  <circle cx="575.20" cy="648.00" r="1.35"/>
  <circle cx="581.20" cy="648.00" r="1.35"/>
  <circle cx="587.20" cy="648.00" r="1.35"/>
  <circle cx="593.20" cy="648.00" r="1.35"/>
  <circle cx="599.20" cy="648.00" r="1.35"/>
  <circle cx="605.20" cy="648.00" r="1.35"/>
  <circle cx="611.20" cy="648.00" r="1.35"/>
  <circle cx="617.20" cy="648.00" r="1.35"/>
  <circle cx="623.20" cy="648.00" r="1.35"/>
  <circle cx="629.20" cy="648.00" r="1.35"/>
  <circle cx="635.20" cy="648.00" r="1.35"/>
  <circle cx="641.20" cy="648.00" r="1.35"/>
  <circle cx="533.20" cy="654.00" r="1.35"/>
  <circle cx="539.20" cy="654.00" r="1.35"/>
  <circle cx="545.20" cy="654.00" r="1.35"/>
  <circle cx="551.20" cy="654.00" r="1.35"/>
  <circle cx="557.20" cy="654.00" r="1.35"/>
  <circle cx="563.20" cy="654.00" r="1.35"/>
  <circle cx="569.20" cy="654.00" r="1.35"/>
  <circle cx="575.20" cy="654.00" r="1.35"/>
  <circle cx="581.20" cy="654.00" r="1.35"/>
  <circle cx="587.20" cy="654.00" r="1.35"/>
  <circle cx="593.20" cy="654.00" r="1.35"/>
  <circle cx="599.20" cy="654.00" r="1.35"/>
  <circle cx="605.20" cy="654.00" r="1.35"/>
  <circle cx="611.20" cy="654.00" r="1.35"/>
  <circle cx="617.20" cy="654.00" r="1.35"/>
  <circle cx="623.20" cy="654.00" r="1.35"/>
  <circle cx="629.20" cy="654.00" r="1.35"/>
  <circle cx="533.20" cy="660.00" r="1.35"/>
  <circle cx="539.20" cy="660.00" r="1.35"/>
  <circle cx="545.20" cy="660.00" r="1.35"/>
  <circle cx="551.20" cy="660.00" r="1.35"/>
  <circle cx="557.20" cy="660.00" r="1.35"/>
  <circle cx="563.20" cy="660.00" r="1.35"/>
  <circle cx="569.20" cy="660.00" r="1.35"/>
  <circle cx="575.20" cy="660.00" r="1.35"/>
  <circle cx="581.20" cy="660.00" r="1.35"/>
  <circle cx="587.20" cy="660.00" r="1.35"/>
  <circle cx="593.20" cy="660.00" r="1.35"/>
  <circle cx="599.20" cy="660.00" r="1.35"/>
  <circle cx="605.20" cy="660.00" r="1.35"/>
  <circle cx="611.20" cy="660.00" r="1.35"/>
  <circle cx="617.20" cy="660.00" r="1.35"/>
  <circle cx="527.20" cy="666.00" r="1.35"/>
  <circle cx="533.20" cy="666.00" r="1.35"/>
  <circle cx="539.20" cy="666.00" r="1.35"/>
  <circle cx="545.20" cy="666.00" r="1.35"/>
  <circle cx="551.20" cy="666.00" r="1.35"/>
  <circle cx="557.20" cy="666.00" r="1.35"/>
  <circle cx="563.20" cy="666.00" r="1.35"/>
  <circle cx="569.20" cy="666.00" r="1.35"/>
  <circle cx="575.20" cy="666.00" r="1.35"/>
  <circle cx="581.20" cy="666.00" r="1.35"/>
  <circle cx="587.20" cy="666.00" r="1.35"/>
  <circle cx="593.20" cy="666.00" r="1.35"/>
  <circle cx="599.20" cy="666.00" r="1.35"/>
  <circle cx="605.20" cy="666.00" r="1.35"/>
  <circle cx="611.20" cy="666.00" r="1.35"/>
  <circle cx="533.20" cy="672.00" r="1.35"/>
  <circle cx="539.20" cy="672.00" r="1.35"/>
  <circle cx="545.20" cy="672.00" r="1.35"/>
  <circle cx="551.20" cy="672.00" r="1.35"/>
  <circle cx="557.20" cy="672.00" r="1.35"/>
  <circle cx="563.20" cy="672.00" r="1.35"/>
  <circle cx="569.20" cy="672.00" r="1.35"/>
  <circle cx="575.20" cy="672.00" r="1.35"/>
  <circle cx="581.20" cy="672.00" r="1.35"/>
  <circle cx="587.20" cy="672.00" r="1.35"/>
  <circle cx="593.20" cy="672.00" r="1.35"/>
  <circle cx="599.20" cy="672.00" r="1.35"/>
  <circle cx="533.20" cy="678.00" r="1.35"/>
  <circle cx="539.20" cy="678.00" r="1.35"/>
  <circle cx="545.20" cy="678.00" r="1.35"/>
  <circle cx="551.20" cy="678.00" r="1.35"/>
  <circle cx="557.20" cy="678.00" r="1.35"/>
  <circle cx="563.20" cy="678.00" r="1.35"/>
  <circle cx="569.20" cy="678.00" r="1.35"/>
  <circle cx="575.20" cy="678.00" r="1.35"/>
  <circle cx="581.20" cy="678.00" r="1.35"/>
  <circle cx="587.20" cy="678.00" r="1.35"/>
  <circle cx="593.20" cy="678.00" r="1.35"/>
  <circle cx="533.20" cy="684.00" r="1.35"/>
  <circle cx="539.20" cy="684.00" r="1.35"/>
  <circle cx="545.20" cy="684.00" r="1.35"/>
  <circle cx="551.20" cy="684.00" r="1.35"/>
  <circle cx="557.20" cy="684.00" r="1.35"/>
  <circle cx="563.20" cy="684.00" r="1.35"/>
  <circle cx="569.20" cy="684.00" r="1.35"/>
  <circle cx="575.20" cy="684.00" r="1.35"/>
  <circle cx="581.20" cy="684.00" r="1.35"/>
  <circle cx="539.20" cy="690.00" r="1.35"/>
  <circle cx="545.20" cy="690.00" r="1.35"/>
  <circle cx="551.20" cy="690.00" r="1.35"/>
  <circle cx="557.20" cy="690.00" r="1.35"/>
  <circle cx="563.20" cy="690.00" r="1.35"/>
  <circle cx="569.20" cy="690.00" r="1.35"/>
  <circle cx="575.20" cy="690.00" r="1.35"/>
  <circle cx="557.20" cy="696.00" r="1.35"/>
</g>
<g fill="#7B7976" opacity="0.55">
  <circle cx="545.20" cy="510.00" r="2.1"/>
  <circle cx="557.20" cy="510.00" r="2.1"/>
  <circle cx="569.20" cy="510.00" r="2.1"/>
  <circle cx="533.20" cy="522.00" r="2.1"/>
  <circle cx="545.20" cy="522.00" r="2.1"/>
  <circle cx="557.20" cy="522.00" r="2.1"/>
  <circle cx="569.20" cy="522.00" r="2.1"/>
  <circle cx="581.20" cy="522.00" r="2.1"/>
  <circle cx="593.20" cy="522.00" r="2.1"/>
  <circle cx="533.20" cy="534.00" r="2.1"/>
  <circle cx="545.20" cy="534.00" r="2.1"/>
  <circle cx="557.20" cy="534.00" r="2.1"/>
  <circle cx="569.20" cy="534.00" r="2.1"/>
  <circle cx="581.20" cy="534.00" r="2.1"/>
  <circle cx="593.20" cy="534.00" r="2.1"/>
  <circle cx="605.20" cy="534.00" r="2.1"/>
  <circle cx="533.20" cy="546.00" r="2.1"/>
  <circle cx="545.20" cy="546.00" r="2.1"/>
  <circle cx="557.20" cy="546.00" r="2.1"/>
  <circle cx="569.20" cy="546.00" r="2.1"/>
  <circle cx="581.20" cy="546.00" r="2.1"/>
  <circle cx="593.20" cy="546.00" r="2.1"/>
  <circle cx="605.20" cy="546.00" r="2.1"/>
  <circle cx="617.20" cy="546.00" r="2.1"/>
  <circle cx="629.20" cy="546.00" r="2.1"/>
  <circle cx="545.20" cy="558.00" r="2.1"/>
  <circle cx="557.20" cy="558.00" r="2.1"/>
  <circle cx="569.20" cy="558.00" r="2.1"/>
  <circle cx="581.20" cy="558.00" r="2.1"/>
  <circle cx="593.20" cy="558.00" r="2.1"/>
  <circle cx="605.20" cy="558.00" r="2.1"/>
  <circle cx="617.20" cy="558.00" r="2.1"/>
  <circle cx="629.20" cy="558.00" r="2.1"/>
  <circle cx="641.20" cy="558.00" r="2.1"/>
  <circle cx="569.20" cy="570.00" r="2.1"/>
  <circle cx="581.20" cy="570.00" r="2.1"/>
  <circle cx="593.20" cy="570.00" r="2.1"/>
  <circle cx="605.20" cy="570.00" r="2.1"/>
  <circle cx="617.20" cy="570.00" r="2.1"/>
  <circle cx="629.20" cy="570.00" r="2.1"/>
  <circle cx="641.20" cy="570.00" r="2.1"/>
  <circle cx="653.20" cy="570.00" r="2.1"/>
  <circle cx="665.20" cy="570.00" r="2.1"/>
  <circle cx="581.20" cy="582.00" r="2.1"/>
  <circle cx="593.20" cy="582.00" r="2.1"/>
  <circle cx="605.20" cy="582.00" r="2.1"/>
  <circle cx="617.20" cy="582.00" r="2.1"/>
  <circle cx="629.20" cy="582.00" r="2.1"/>
  <circle cx="641.20" cy="582.00" r="2.1"/>
  <circle cx="653.20" cy="582.00" r="2.1"/>
  <circle cx="665.20" cy="582.00" r="2.1"/>
  <circle cx="677.20" cy="582.00" r="2.1"/>
  <circle cx="605.20" cy="594.00" r="2.1"/>
  <circle cx="617.20" cy="594.00" r="2.1"/>
  <circle cx="629.20" cy="594.00" r="2.1"/>
  <circle cx="641.20" cy="594.00" r="2.1"/>
  <circle cx="653.20" cy="594.00" r="2.1"/>
  <circle cx="665.20" cy="594.00" r="2.1"/>
  <circle cx="677.20" cy="594.00" r="2.1"/>
  <circle cx="689.20" cy="594.00" r="2.1"/>
  <circle cx="605.20" cy="606.00" r="2.1"/>
  <circle cx="617.20" cy="606.00" r="2.1"/>
  <circle cx="629.20" cy="606.00" r="2.1"/>
  <circle cx="641.20" cy="606.00" r="2.1"/>
  <circle cx="653.20" cy="606.00" r="2.1"/>
  <circle cx="665.20" cy="606.00" r="2.1"/>
  <circle cx="677.20" cy="606.00" r="2.1"/>
  <circle cx="689.20" cy="606.00" r="2.1"/>
  <circle cx="581.20" cy="618.00" r="2.1"/>
  <circle cx="593.20" cy="618.00" r="2.1"/>
  <circle cx="605.20" cy="618.00" r="2.1"/>
  <circle cx="617.20" cy="618.00" r="2.1"/>
  <circle cx="629.20" cy="618.00" r="2.1"/>
  <circle cx="641.20" cy="618.00" r="2.1"/>
  <circle cx="653.20" cy="618.00" r="2.1"/>
  <circle cx="665.20" cy="618.00" r="2.1"/>
  <circle cx="677.20" cy="618.00" r="2.1"/>
  <circle cx="569.20" cy="630.00" r="2.1"/>
  <circle cx="581.20" cy="630.00" r="2.1"/>
  <circle cx="593.20" cy="630.00" r="2.1"/>
  <circle cx="605.20" cy="630.00" r="2.1"/>
  <circle cx="617.20" cy="630.00" r="2.1"/>
  <circle cx="629.20" cy="630.00" r="2.1"/>
  <circle cx="641.20" cy="630.00" r="2.1"/>
  <circle cx="653.20" cy="630.00" r="2.1"/>
  <circle cx="665.20" cy="630.00" r="2.1"/>
  <circle cx="545.20" cy="642.00" r="2.1"/>
  <circle cx="557.20" cy="642.00" r="2.1"/>
  <circle cx="569.20" cy="642.00" r="2.1"/>
  <circle cx="581.20" cy="642.00" r="2.1"/>
  <circle cx="593.20" cy="642.00" r="2.1"/>
  <circle cx="605.20" cy="642.00" r="2.1"/>
  <circle cx="617.20" cy="642.00" r="2.1"/>
  <circle cx="629.20" cy="642.00" r="2.1"/>
  <circle cx="641.20" cy="642.00" r="2.1"/>
  <circle cx="533.20" cy="654.00" r="2.1"/>
  <circle cx="545.20" cy="654.00" r="2.1"/>
  <circle cx="557.20" cy="654.00" r="2.1"/>
  <circle cx="569.20" cy="654.00" r="2.1"/>
  <circle cx="581.20" cy="654.00" r="2.1"/>
  <circle cx="593.20" cy="654.00" r="2.1"/>
  <circle cx="605.20" cy="654.00" r="2.1"/>
  <circle cx="617.20" cy="654.00" r="2.1"/>
  <circle cx="629.20" cy="654.00" r="2.1"/>
  <circle cx="533.20" cy="666.00" r="2.1"/>
  <circle cx="545.20" cy="666.00" r="2.1"/>
  <circle cx="557.20" cy="666.00" r="2.1"/>
  <circle cx="569.20" cy="666.00" r="2.1"/>
  <circle cx="581.20" cy="666.00" r="2.1"/>
  <circle cx="593.20" cy="666.00" r="2.1"/>
  <circle cx="605.20" cy="666.00" r="2.1"/>
  <circle cx="533.20" cy="678.00" r="2.1"/>
  <circle cx="545.20" cy="678.00" r="2.1"/>
  <circle cx="557.20" cy="678.00" r="2.1"/>
  <circle cx="569.20" cy="678.00" r="2.1"/>
  <circle cx="581.20" cy="678.00" r="2.1"/>
  <circle cx="593.20" cy="678.00" r="2.1"/>
  <circle cx="545.20" cy="690.00" r="2.1"/>
  <circle cx="557.20" cy="690.00" r="2.1"/>
  <circle cx="569.20" cy="690.00" r="2.1"/>
</g>
<g fill="#7B7976" fill-opacity="0.60">
  <circle cx="600.00" cy="230.00" r="33.00"/>
  <circle cx="279.57" cy="785.00" r="33.00"/>
  <circle cx="920.43" cy="785.00" r="33.00"/>
</g>
</svg>