<svg xmlns="http://www.w3.org/2000/svg" width="1200" height="1200" viewBox="0 0 1200 1200">
<defs><filter id="grain"><feTurbulence type="fractalNoise" baseFrequency="0.9" numOctaves="2" stitchTiles="stitch"/><feColorMatrix type="saturate" values="0"/><feComponentTransfer><feFuncA type="linear" slope="0.06"/></feComponentTransfer></filter></defs>
<rect width="1200" height="1200" fill="#1A1A18"/>
<rect width="1200" height="1200" filter="url(#grain)"/>
<path d="M 551.22,556.07 L 824.39,713.78 L 473.17,916.56 L 200.00,758.84 Z" fill="none" stroke="#868990" stroke-width="1.15" stroke-opacity="0.62" stroke-linejoin="miter" stroke-miterlimit="4" shape-rendering="geometricPrecision"/>
<line x1="464.59" y1="643.93" x2="654.60" y2="753.64" stroke="#868990" stroke-width="1.90" stroke-opacity="0.46" stroke-linecap="butt" stroke-linejoin="miter" stroke-miterlimit="4" shape-rendering="geometricPrecision"/>
<line x1="432.98" y1="662.18" x2="594.69" y2="755.55" stroke="#868990" stroke-width="1.90" stroke-opacity="0.46" stroke-linecap="butt" stroke-linejoin="miter" stroke-miterlimit="4" shape-rendering="geometricPrecision"/>
<line x1="401.37" y1="680.43" x2="597.45" y2="793.64" stroke="#868990" stroke-width="1.90" stroke-opacity="0.46" stroke-linecap="butt" stroke-linejoin="miter" stroke-miterlimit="4" shape-rendering="geometricPrecision"/>
<line x1="369.76" y1="698.68" x2="487.00" y2="766.38" stroke="#868990" stroke-width="1.90" stroke-opacity="0.46" stroke-linecap="butt" stroke-linejoin="miter" stroke-miterlimit="4" shape-rendering="geometricPrecision"/>
<line x1="338.15" y1="716.93" x2="516.04" y2="819.64" stroke="#868990" stroke-width="1.90" stroke-opacity="0.46" stroke-linecap="butt" stroke-linejoin="miter" stroke-miterlimit="4" shape-rendering="geometricPrecision"/>
<line x1="306.54" y1="735.18" x2="399.52" y2="788.87" stroke="#868990" stroke-width="1.90" stroke-opacity="0.46" stroke-linecap="butt" stroke-linejoin="miter" stroke-miterlimit="4" shape-rendering="geometricPrecision"/>
<path d="M 639.02,419.75 L 912.20,577.47 L 560.98,780.25 L 287.80,622.53 Z" fill="none" stroke="#868990" stroke-width="1.20" stroke-opacity="0.76" stroke-linejoin="miter" stroke-miterlimit="4" shape-rendering="geometricPrecision"/>
<line x1="552.39" y1="507.62" x2="742.41" y2="617.33" stroke="#868990" stroke-width="2.00" stroke-opacity="0.56" stroke-linecap="butt" stroke-linejoin="miter" stroke-miterlimit="4" shape-rendering="geometricPrecision"/>
<line x1="520.78" y1="525.87" x2="682.50" y2="619.24" stroke="#868990" stroke-width="2.00" stroke-opacity="0.56" stroke-linecap="butt" stroke-linejoin="miter" stroke-miterlimit="4" shape-rendering="geometricPrecision"/>
<line x1="489.17" y1="544.12" x2="685.25" y2="657.33" stroke="#868990" stroke-width="2.00" stroke-opacity="0.56" stroke-linecap="butt" stroke-linejoin="miter" stroke-miterlimit="4" shape-rendering="geometricPrecision"/>
<line x1="457.56" y1="562.37" x2="574.81" y2="630.07" stroke="#868990" stroke-width="2.00" stroke-opacity="0.56" stroke-linecap="butt" stroke-linejoin="miter" stroke-miterlimit="4" shape-rendering="geometricPrecision"/>
<line x1="425.95" y1="580.62" x2="603.84" y2="683.33" stroke="#868990" stroke-width="2.00" stroke-opacity="0.56" stroke-linecap="butt" stroke-linejoin="miter" stroke-miterlimit="4" shape-rendering="geometricPrecision"/>
<line x1="394.34" y1="598.87" x2="487.33" y2="652.56" stroke="#868990" stroke-width="2.00" stroke-opacity="0.56" stroke-linecap="butt" stroke-linejoin="miter" stroke-miterlimit="4" shape-rendering="geometricPrecision"/>
<g fill="#C9C9C4" fill-opacity="0.55">
<circle cx="726.83" cy="310.48" r="1.20"/>
<circle cx="739.51" cy="317.80" r="1.20"/>
<circle cx="752.20" cy="325.12" r="1.20"/>
<circle cx="764.88" cy="332.45" r="1.20"/>
<circle cx="777.56" cy="339.77" r="1.20"/>
<circle cx="790.24" cy="347.09" r="1.20"/>
<circle cx="802.93" cy="354.41" r="1.20"/>
<circle cx="815.61" cy="361.74" r="1.20"/>
<circle cx="828.29" cy="369.06" r="1.20"/>
<circle cx="840.98" cy="376.38" r="1.20"/>
<circle cx="853.66" cy="383.70" r="1.20"/>
<circle cx="866.34" cy="391.03" r="1.20"/>
<circle cx="879.02" cy="398.35" r="1.20"/>
<circle cx="891.71" cy="405.67" r="1.20"/>
<circle cx="904.39" cy="412.99" r="1.20"/>
<circle cx="917.07" cy="420.32" r="1.20"/>
<circle cx="929.76" cy="427.64" r="1.20"/>
<circle cx="942.44" cy="434.96" r="1.20"/>
<circle cx="714.15" cy="317.80" r="1.20"/>
<circle cx="726.83" cy="325.12" r="1.20"/>
<circle cx="739.51" cy="332.45" r="1.20"/>
<circle cx="752.20" cy="339.77" r="1.20"/>
<circle cx="764.88" cy="347.09" r="1.20"/>
<circle cx="777.56" cy="354.41" r="1.20"/>
<circle cx="790.24" cy="361.74" r="1.20"/>
<circle cx="802.93" cy="369.06" r="1.20"/>
<circle cx="815.61" cy="376.38" r="1.20"/>
<circle cx="828.29" cy="383.70" r="1.20"/>
<circle cx="840.98" cy="391.03" r="1.20"/>
<circle cx="853.66" cy="398.35" r="1.20"/>
<circle cx="866.34" cy="405.67" r="1.20"/>
<circle cx="879.02" cy="412.99" r="1.20"/>
<circle cx="891.71" cy="420.32" r="1.20"/>
<circle cx="904.39" cy="427.64" r="1.20"/>
<circle cx="917.07" cy="434.96" r="1.20"/>
<circle cx="929.76" cy="442.28" r="1.20"/>
<circle cx="701.46" cy="325.12" r="1.20"/>
<circle cx="714.15" cy="332.45" r="1.20"/>
<circle cx="726.83" cy="339.77" r="1.20"/>
<circle cx="739.51" cy="347.09" r="1.20"/>
<circle cx="752.20" cy="354.41" r="1.20"/>
<circle cx="764.88" cy="361.74" r="1.20"/>
<circle cx="777.56" cy="369.06" r="1.20"/>
<circle cx="790.24" cy="376.38" r="1.20"/>
<circle cx="802.93" cy="383.70" r="1.20"/>
<circle cx="815.61" cy="391.03" r="1.20"/>
<circle cx="828.29" cy="398.35" r="1.20"/>
<circle cx="840.98" cy="405.67" r="1.20"/>
<circle cx="853.66" cy="412.99" r="1.20"/>
<circle cx="866.34" cy="420.32" r="1.20"/>
<circle cx="879.02" cy="427.64" r="1.20"/>
<circle cx="891.71" cy="434.96" r="1.20"/>
<circle cx="904.39" cy="442.28" r="1.20"/>
<circle cx="917.07" cy="449.61" r="1.20"/>
<circle cx="688.78" cy="332.45" r="1.20"/>
<circle cx="701.46" cy="339.77" r="1.20"/>
<circle cx="714.15" cy="347.09" r="1.20"/>
<circle cx="726.83" cy="354.41" r="1.20"/>
<circle cx="739.51" cy="361.74" r="1.20"/>
<circle cx="752.20" cy="369.06" r="1.20"/>
<circle cx="764.88" cy="376.38" r="1.20"/>
<circle cx="777.56" cy="383.70" r="1.20"/>
<circle cx="790.24" cy="391.03" r="1.20"/>
<circle cx="802.93" cy="398.35" r="1.20"/>
<circle cx="815.61" cy="405.67" r="1.20"/>
<circle cx="828.29" cy="412.99" r="1.20"/>
<circle cx="840.98" cy="420.32" r="1.20"/>
<circle cx="853.66" cy="427.64" r="1.20"/>
<circle cx="866.34" cy="434.96" r="1.20"/>
<circle cx="879.02" cy="442.28" r="1.20"/>
<circle cx="891.71" cy="449.61" r="1.20"/>
<circle cx="904.39" cy="456.93" r="1.20"/>
<circle cx="676.10" cy="339.77" r="1.20"/>
<circle cx="688.78" cy="347.09" r="1.20"/>
<circle cx="701.46" cy="354.41" r="1.20"/>
<circle cx="714.15" cy="361.74" r="1.20"/>
<circle cx="726.83" cy="369.06" r="1.20"/>
<circle cx="739.51" cy="376.38" r="1.20"/>
<circle cx="752.20" cy="383.70" r="1.20"/>
<circle cx="764.88" cy="391.03" r="1.20"/>
<circle cx="777.56" cy="398.35" r="1.20"/>
<circle cx="790.24" cy="405.67" r="1.20"/>
<circle cx="802.93" cy="412.99" r="1.20"/>
<circle cx="815.61" cy="420.32" r="1.20"/>
<circle cx="828.29" cy="427.64" r="1.20"/>
<circle cx="840.98" cy="434.96" r="1.20"/>
<circle cx="853.66" cy="442.28" r="1.20"/>
<circle cx="866.34" cy="449.61" r="1.20"/>
<circle cx="879.02" cy="456.93" r="1.20"/>
<circle cx="891.71" cy="464.25" r="1.20"/>
<circle cx="663.41" cy="347.09" r="1.20"/>
<circle cx="676.10" cy="354.41" r="1.20"/>
<circle cx="688.78" cy="361.74" r="1.20"/>
<circle cx="701.46" cy="369.06" r="1.20"/>
<circle cx="714.15" cy="376.38" r="1.20"/>
<circle cx="726.83" cy="383.70" r="1.20"/>
<circle cx="739.51" cy="391.03" r="1.20"/>
<circle cx="752.20" cy="398.35" r="1.20"/>
<circle cx="764.88" cy="405.67" r="1.20"/>
<circle cx="777.56" cy="412.99" r="1.20"/>
<circle cx="790.24" cy="420.32" r="1.20"/>
<circle cx="802.93" cy="427.64" r="1.20"/>
<circle cx="815.61" cy="434.96" r="1.20"/>
<circle cx="828.29" cy="442.28" r="1.20"/>
<circle cx="840.98" cy="449.61" r="1.20"/>
<circle cx="853.66" cy="456.93" r="1.20"/>
<circle cx="866.34" cy="464.25" r="1.20"/>
<circle cx="879.02" cy="471.57" r="1.20"/>
<circle cx="650.73" cy="354.41" r="1.20"/>
<circle cx="663.41" cy="361.74" r="1.20"/>
<circle cx="676.10" cy="369.06" r="1.20"/>
<circle cx="688.78" cy="376.38" r="1.20"/>
<circle cx="701.46" cy="383.70" r="1.20"/>
<circle cx="714.15" cy="391.03" r="1.20"/>
<circle cx="726.83" cy="398.35" r="1.20"/>
<circle cx="739.51" cy="405.67" r="1.20"/>
<circle cx="752.20" cy="412.99" r="1.20"/>
<circle cx="764.88" cy="420.32" r="1.20"/>
<circle cx="777.56" cy="427.64" r="1.20"/>
<circle cx="790.24" cy="434.96" r="1.20"/>
<circle cx="802.93" cy="442.28" r="1.20"/>
<circle cx="815.61" cy="449.61" r="1.20"/>
<circle cx="828.29" cy="456.93" r="1.20"/>
<circle cx="840.98" cy="464.25" r="1.20"/>
<circle cx="853.66" cy="471.57" r="1.20"/>
<circle cx="866.34" cy="478.90" r="1.20"/>
<circle cx="638.05" cy="361.74" r="1.20"/>
<circle cx="650.73" cy="369.06" r="1.20"/>
<circle cx="663.41" cy="376.38" r="1.20"/>
<circle cx="676.10" cy="383.70" r="1.20"/>
<circle cx="688.78" cy="391.03" r="1.20"/>
<circle cx="701.46" cy="398.35" r="1.20"/>
<circle cx="714.15" cy="405.67" r="1.20"/>
<circle cx="726.83" cy="412.99" r="1.20"/>
<circle cx="739.51" cy="420.32" r="1.20"/>
<circle cx="752.20" cy="427.64" r="1.20"/>
<circle cx="764.88" cy="434.96" r="1.20"/>
<circle cx="777.56" cy="442.28" r="1.20"/>
<circle cx="790.24" cy="449.61" r="1.20"/>
<circle cx="802.93" cy="456.93" r="1.20"/>
<circle cx="815.61" cy="464.25" r="1.20"/>
<circle cx="828.29" cy="471.57" r="1.20"/>
<circle cx="840.98" cy="478.90" r="1.20"/>
<circle cx="853.66" cy="486.22" r="1.20"/>
<circle cx="625.37" cy="369.06" r="1.20"/>
<circle cx="638.05" cy="376.38" r="1.20"/>
<circle cx="650.73" cy="383.70" r="1.20"/>
<circle cx="663.41" cy="391.03" r="1.20"/>
<circle cx="676.10" cy="398.35" r="1.20"/>
<circle cx="688.78" cy="405.67" r="1.20"/>
<circle cx="701.46" cy="412.99" r="1.20"/>
<circle cx="714.15" cy="420.32" r="1.20"/>
<circle cx="726.83" cy="427.64" r="1.20"/>
<circle cx="739.51" cy="434.96" r="1.20"/>
<circle cx="752.20" cy="442.28" r="1.20"/>
<circle cx="764.88" cy="449.61" r="1.20"/>
<circle cx="777.56" cy="456.93" r="1.20"/>
<circle cx="790.24" cy="464.25" r="1.20"/>
<circle cx="802.93" cy="471.57" r="1.20"/>
<circle cx="815.61" cy="478.90" r="1.20"/>
<circle cx="828.29" cy="486.22" r="1.20"/>
<circle cx="840.98" cy="493.54" r="1.20"/>
<circle cx="612.68" cy="376.38" r="1.20"/>
<circle cx="625.37" cy="383.70" r="1.20"/>
<circle cx="638.05" cy="391.03" r="1.20"/>
<circle cx="650.73" cy="398.35" r="1.20"/>
<circle cx="663.41" cy="405.67" r="1.20"/>
<circle cx="676.10" cy="412.99" r="1.20"/>
<circle cx="688.78" cy="420.32" r="1.20"/>
<circle cx="701.46" cy="427.64" r="1.20"/>
<circle cx="714.15" cy="434.96" r="1.20"/>
<circle cx="726.83" cy="442.28" r="1.20"/>
<circle cx="739.51" cy="449.61" r="1.20"/>
<circle cx="752.20" cy="456.93" r="1.20"/>
<circle cx="764.88" cy="464.25" r="1.20"/>
<circle cx="777.56" cy="471.57" r="1.20"/>
<circle cx="790.24" cy="478.90" r="1.20"/>
<circle cx="802.93" cy="486.22" r="1.20"/>
<circle cx="815.61" cy="493.54" r="1.20"/>
<circle cx="828.29" cy="500.86" r="1.20"/>
<circle cx="600.00" cy="383.70" r="1.20"/>
<circle cx="612.68" cy="391.03" r="1.20"/>
<circle cx="625.37" cy="398.35" r="1.20"/>
<circle cx="638.05" cy="405.67" r="1.20"/>
<circle cx="650.73" cy="412.99" r="1.20"/>
<circle cx="663.41" cy="420.32" r="1.20"/>
<circle cx="676.10" cy="427.64" r="1.20"/>
<circle cx="688.78" cy="434.96" r="1.20"/>
<circle cx="701.46" cy="442.28" r="1.20"/>
<circle cx="714.15" cy="449.61" r="1.20"/>
<circle cx="726.83" cy="456.93" r="1.20"/>
<circle cx="739.51" cy="464.25" r="1.20"/>
<circle cx="752.20" cy="471.57" r="1.20"/>
<circle cx="764.88" cy="478.90" r="1.20"/>
<circle cx="777.56" cy="486.22" r="1.20"/>
<circle cx="790.24" cy="493.54" r="1.20"/>
<circle cx="802.93" cy="500.86" r="1.20"/>
<circle cx="815.61" cy="508.19" r="1.20"/>
<circle cx="587.32" cy="391.03" r="1.20"/>
<circle cx="600.00" cy="398.35" r="1.20"/>
<circle cx="612.68" cy="405.67" r="1.20"/>
<circle cx="625.37" cy="412.99" r="1.20"/>
<circle cx="638.05" cy="420.32" r="1.20"/>
<circle cx="650.73" cy="427.64" r="1.20"/>
<circle cx="663.41" cy="434.96" r="1.20"/>
<circle cx="676.10" cy="442.28" r="1.20"/>
<circle cx="688.78" cy="449.61" r="1.20"/>
<circle cx="701.46" cy="456.93" r="1.20"/>
<circle cx="714.15" cy="464.25" r="1.20"/>
<circle cx="726.83" cy="471.57" r="1.20"/>
<circle cx="739.51" cy="478.90" r="1.20"/>
<circle cx="752.20" cy="486.22" r="1.20"/>
<circle cx="764.88" cy="493.54" r="1.20"/>
<circle cx="777.56" cy="500.86" r="1.20"/>
<circle cx="790.24" cy="508.19" r="1.20"/>
<circle cx="802.93" cy="515.51" r="1.20"/>
<circle cx="574.63" cy="398.35" r="1.20"/>
<circle cx="587.32" cy="405.67" r="1.20"/>
<circle cx="600.00" cy="412.99" r="1.20"/>
<circle cx="612.68" cy="420.32" r="1.20"/>
<circle cx="625.37" cy="427.64" r="1.20"/>
<circle cx="638.05" cy="434.96" r="1.20"/>
<circle cx="650.73" cy="442.28" r="1.20"/>
<circle cx="663.41" cy="449.61" r="1.20"/>
<circle cx="676.10" cy="456.93" r="1.20"/>
<circle cx="688.78" cy="464.25" r="1.20"/>
<circle cx="701.46" cy="471.57" r="1.20"/>
<circle cx="714.15" cy="478.90" r="1.20"/>
<circle cx="726.83" cy="486.22" r="1.20"/>
<circle cx="739.51" cy="493.54" r="1.20"/>
<circle cx="752.20" cy="500.86" r="1.20"/>
<circle cx="764.88" cy="508.19" r="1.20"/>
<circle cx="777.56" cy="515.51" r="1.20"/>
<circle cx="790.24" cy="522.83" r="1.20"/>
<circle cx="561.95" cy="405.67" r="1.20"/>
<circle cx="574.63" cy="412.99" r="1.20"/>
<circle cx="587.32" cy="420.32" r="1.20"/>
<circle cx="600.00" cy="427.64" r="1.20"/>
<circle cx="612.68" cy="434.96" r="1.20"/>
<circle cx="625.37" cy="442.28" r="1.20"/>
<circle cx="638.05" cy="449.61" r="1.20"/>
<circle cx="650.73" cy="456.93" r="1.20"/>
<circle cx="663.41" cy="464.25" r="1.20"/>
<circle cx="676.10" cy="471.57" r="1.20"/>
<circle cx="688.78" cy="478.90" r="1.20"/>
<circle cx="701.46" cy="486.22" r="1.20"/>
<circle cx="714.15" cy="493.54" r="1.20"/>
<circle cx="726.83" cy="500.86" r="1.20"/>
<circle cx="739.51" cy="508.19" r="1.20"/>
<circle cx="752.20" cy="515.51" r="1.20"/>
<circle cx="764.88" cy="522.83" r="1.20"/>
<circle cx="777.56" cy="530.15" r="1.20"/>
<circle cx="549.27" cy="412.99" r="1.20"/>
<circle cx="561.95" cy="420.32" r="1.20"/>
<circle cx="574.63" cy="427.64" r="1.20"/>
<circle cx="587.32" cy="434.96" r="1.20"/>
<circle cx="600.00" cy="442.28" r="1.20"/>
<circle cx="612.68" cy="449.61" r="1.20"/>
<circle cx="625.37" cy="456.93" r="1.20"/>
<circle cx="638.05" cy="464.25" r="1.20"/>
<circle cx="650.73" cy="471.57" r="1.20"/>
<circle cx="663.41" cy="478.90" r="1.20"/>
<circle cx="676.10" cy="486.22" r="1.20"/>
<circle cx="688.78" cy="493.54" r="1.20"/>
<circle cx="701.46" cy="500.86" r="1.20"/>
<circle cx="714.15" cy="508.19" r="1.20"/>
<circle cx="726.83" cy="515.51" r="1.20"/>
<circle cx="739.51" cy="522.83" r="1.20"/>
<circle cx="752.20" cy="530.15" r="1.20"/>
<circle cx="764.88" cy="537.48" r="1.20"/>
<circle cx="536.59" cy="420.32" r="1.20"/>
<circle cx="549.27" cy="427.64" r="1.20"/>
<circle cx="561.95" cy="434.96" r="1.20"/>
<circle cx="574.63" cy="442.28" r="1.20"/>
<circle cx="587.32" cy="449.61" r="1.20"/>
<circle cx="600.00" cy="456.93" r="1.20"/>
<circle cx="612.68" cy="464.25" r="1.20"/>
<circle cx="625.37" cy="471.57" r="1.20"/>
<circle cx="638.05" cy="478.90" r="1.20"/>
<circle cx="650.73" cy="486.22" r="1.20"/>
<circle cx="663.41" cy="493.54" r="1.20"/>
<circle cx="676.10" cy="500.86" r="1.20"/>
<circle cx="688.78" cy="508.19" r="1.20"/>
<circle cx="701.46" cy="515.51" r="1.20"/>
<circle cx="714.15" cy="522.83" r="1.20"/>
<circle cx="726.83" cy="530.15" r="1.20"/>
<circle cx="739.51" cy="537.48" r="1.20"/>
<circle cx="752.20" cy="544.80" r="1.20"/>
<circle cx="523.90" cy="427.64" r="1.20"/>
<circle cx="536.59" cy="434.96" r="1.20"/>
<circle cx="549.27" cy="442.28" r="1.20"/>
<circle cx="561.95" cy="449.61" r="1.20"/>
<circle cx="574.63" cy="456.93" r="1.20"/>
<circle cx="587.32" cy="464.25" r="1.20"/>
<circle cx="600.00" cy="471.57" r="1.20"/>
<circle cx="612.68" cy="478.90" r="1.20"/>
<circle cx="625.37" cy="486.22" r="1.20"/>
<circle cx="638.05" cy="493.54" r="1.20"/>
<circle cx="650.73" cy="500.86" r="1.20"/>
<circle cx="663.41" cy="508.19" r="1.20"/>
<circle cx="676.10" cy="515.51" r="1.20"/>
<circle cx="688.78" cy="522.83" r="1.20"/>
<circle cx="701.46" cy="530.15" r="1.20"/>
<circle cx="714.15" cy="537.48" r="1.20"/>
<circle cx="726.83" cy="544.80" r="1.20"/>
<circle cx="739.51" cy="552.12" r="1.20"/>
<circle cx="511.22" cy="434.96" r="1.20"/>
<circle cx="523.90" cy="442.28" r="1.20"/>
<circle cx="536.59" cy="449.61" r="1.20"/>
<circle cx="549.27" cy="456.93" r="1.20"/>
<circle cx="561.95" cy="464.25" r="1.20"/>
<circle cx="574.63" cy="471.57" r="1.20"/>
<circle cx="587.32" cy="478.90" r="1.20"/>
<circle cx="600.00" cy="486.22" r="1.20"/>
<circle cx="612.68" cy="493.54" r="1.20"/>
<circle cx="625.37" cy="500.86" r="1.20"/>
<circle cx="638.05" cy="508.19" r="1.20"/>
<circle cx="650.73" cy="515.51" r="1.20"/>
<circle cx="663.41" cy="522.83" r="1.20"/>
<circle cx="676.10" cy="530.15" r="1.20"/>
<circle cx="688.78" cy="537.48" r="1.20"/>
<circle cx="701.46" cy="544.80" r="1.20"/>
<circle cx="714.15" cy="552.12" r="1.20"/>
<circle cx="726.83" cy="559.44" r="1.20"/>
<circle cx="498.54" cy="442.28" r="1.20"/>
<circle cx="511.22" cy="449.61" r="1.20"/>
<circle cx="523.90" cy="456.93" r="1.20"/>
<circle cx="536.59" cy="464.25" r="1.20"/>
<circle cx="549.27" cy="471.57" r="1.20"/>
<circle cx="561.95" cy="478.90" r="1.20"/>
<circle cx="574.63" cy="486.22" r="1.20"/>
<circle cx="587.32" cy="493.54" r="1.20"/>
<circle cx="600.00" cy="500.86" r="1.20"/>
<circle cx="612.68" cy="508.19" r="1.20"/>
<circle cx="625.37" cy="515.51" r="1.20"/>
<circle cx="638.05" cy="522.83" r="1.20"/>
<circle cx="650.73" cy="530.15" r="1.20"/>
<circle cx="663.41" cy="537.48" r="1.20"/>
<circle cx="676.10" cy="544.80" r="1.20"/>
<circle cx="688.78" cy="552.12" r="1.20"/>
<circle cx="701.46" cy="559.44" r="1.20"/>
<circle cx="714.15" cy="566.77" r="1.20"/>
<circle cx="485.85" cy="449.61" r="1.20"/>
<circle cx="498.54" cy="456.93" r="1.20"/>
<circle cx="511.22" cy="464.25" r="1.20"/>
<circle cx="523.90" cy="471.57" r="1.20"/>
<circle cx="536.59" cy="478.90" r="1.20"/>
<circle cx="549.27" cy="486.22" r="1.20"/>
<circle cx="561.95" cy="493.54" r="1.20"/>
<circle cx="574.63" cy="500.86" r="1.20"/>
<circle cx="587.32" cy="508.19" r="1.20"/>
<circle cx="600.00" cy="515.51" r="1.20"/>
<circle cx="612.68" cy="522.83" r="1.20"/>
<circle cx="625.37" cy="530.15" r="1.20"/>
<circle cx="638.05" cy="537.48" r="1.20"/>
<circle cx="650.73" cy="544.80" r="1.20"/>
<circle cx="663.41" cy="552.12" r="1.20"/>
<circle cx="676.10" cy="559.44" r="1.20"/>
<circle cx="688.78" cy="566.77" r="1.20"/>
<circle cx="701.46" cy="574.09" r="1.20"/>
<circle cx="473.17" cy="456.93" r="1.20"/>
<circle cx="485.85" cy="464.25" r="1.20"/>
<circle cx="498.54" cy="471.57" r="1.20"/>
<circle cx="511.22" cy="478.90" r="1.20"/>
<circle cx="523.90" cy="486.22" r="1.20"/>
<circle cx="536.59" cy="493.54" r="1.20"/>
<circle cx="549.27" cy="500.86" r="1.20"/>
<circle cx="561.95" cy="508.19" r="1.20"/>
<circle cx="574.63" cy="515.51" r="1.20"/>
<circle cx="587.32" cy="522.83" r="1.20"/>
<circle cx="600.00" cy="530.15" r="1.20"/>
<circle cx="612.68" cy="537.48" r="1.20"/>
<circle cx="625.37" cy="544.80" r="1.20"/>
<circle cx="638.05" cy="552.12" r="1.20"/>
<circle cx="650.73" cy="559.44" r="1.20"/>
<circle cx="663.41" cy="566.77" r="1.20"/>
<circle cx="676.10" cy="574.09" r="1.20"/>
<circle cx="688.78" cy="581.41" r="1.20"/>
<circle cx="460.49" cy="464.25" r="1.20"/>
<circle cx="473.17" cy="471.57" r="1.20"/>
<circle cx="485.85" cy="478.90" r="1.20"/>
<circle cx="498.54" cy="486.22" r="1.20"/>
<circle cx="511.22" cy="493.54" r="1.20"/>
<circle cx="523.90" cy="500.86" r="1.20"/>
<circle cx="536.59" cy="508.19" r="1.20"/>
<circle cx="549.27" cy="515.51" r="1.20"/>
<circle cx="561.95" cy="522.83" r="1.20"/>
<circle cx="574.63" cy="530.15" r="1.20"/>
<circle cx="587.32" cy="537.48" r="1.20"/>
<circle cx="600.00" cy="544.80" r="1.20"/>
<circle cx="612.68" cy="552.12" r="1.20"/>
<circle cx="625.37" cy="559.44" r="1.20"/>
<circle cx="638.05" cy="566.77" r="1.20"/>
<circle cx="650.73" cy="574.09" r="1.20"/>
<circle cx="663.41" cy="581.41" r="1.20"/>
<circle cx="676.10" cy="588.73" r="1.20"/>
<circle cx="447.80" cy="471.57" r="1.20"/>
<circle cx="460.49" cy="478.90" r="1.20"/>
<circle cx="473.17" cy="486.22" r="1.20"/>
<circle cx="485.85" cy="493.54" r="1.20"/>
<circle cx="498.54" cy="500.86" r="1.20"/>
<circle cx="511.22" cy="508.19" r="1.20"/>
<circle cx="523.90" cy="515.51" r="1.20"/>
<circle cx="536.59" cy="522.83" r="1.20"/>
<circle cx="549.27" cy="530.15" r="1.20"/>
<circle cx="561.95" cy="537.48" r="1.20"/>
<circle cx="574.63" cy="544.80" r="1.20"/>
<circle cx="587.32" cy="552.12" r="1.20"/>
<circle cx="600.00" cy="559.44" r="1.20"/>
<circle cx="612.68" cy="566.77" r="1.20"/>
<circle cx="625.37" cy="574.09" r="1.20"/>
<circle cx="638.05" cy="581.41" r="1.20"/>
<circle cx="650.73" cy="588.73" r="1.20"/>
<circle cx="663.41" cy="596.06" r="1.20"/>
<circle cx="435.12" cy="478.90" r="1.20"/>
<circle cx="447.80" cy="486.22" r="1.20"/>
<circle cx="460.49" cy="493.54" r="1.20"/>
<circle cx="473.17" cy="500.86" r="1.20"/>
<circle cx="485.85" cy="508.19" r="1.20"/>
<circle cx="498.54" cy="515.51" r="1.20"/>
<circle cx="511.22" cy="522.83" r="1.20"/>
<circle cx="523.90" cy="530.15" r="1.20"/>
<circle cx="536.59" cy="537.48" r="1.20"/>
<circle cx="549.27" cy="544.80" r="1.20"/>
<circle cx="561.95" cy="552.12" r="1.20"/>
<circle cx="574.63" cy="559.44" r="1.20"/>
<circle cx="587.32" cy="566.77" r="1.20"/>
<circle cx="600.00" cy="574.09" r="1.20"/>
<circle cx="612.68" cy="581.41" r="1.20"/>
<circle cx="625.37" cy="588.73" r="1.20"/>
<circle cx="638.05" cy="596.06" r="1.20"/>
<circle cx="650.73" cy="603.38" r="1.20"/>
<circle cx="422.44" cy="486.22" r="1.20"/>
<circle cx="435.12" cy="493.54" r="1.20"/>
<circle cx="447.80" cy="500.86" r="1.20"/>
<circle cx="460.49" cy="508.19" r="1.20"/>
<circle cx="473.17" cy="515.51" r="1.20"/>
<circle cx="485.85" cy="522.83" r="1.20"/>
<circle cx="498.54" cy="530.15" r="1.20"/>
<circle cx="511.22" cy="537.48" r="1.20"/>
<circle cx="523.90" cy="544.80" r="1.20"/>
<circle cx="536.59" cy="552.12" r="1.20"/>
<circle cx="549.27" cy="559.44" r="1.20"/>
<circle cx="561.95" cy="566.77" r="1.20"/>
<circle cx="574.63" cy="574.09" r="1.20"/>
<circle cx="587.32" cy="581.41" r="1.20"/>
<circle cx="600.00" cy="588.73" r="1.20"/>
<circle cx="612.68" cy="596.06" r="1.20"/>
<circle cx="625.37" cy="603.38" r="1.20"/>
<circle cx="638.05" cy="610.70" r="1.20"/>
</g>
<path d="M 726.83,283.44 L 1000.00,441.16 L 648.78,643.93 L 375.61,486.22 Z" fill="none" stroke="#e8e8ea" stroke-width="1.30" stroke-opacity="0.92" stroke-linejoin="miter" stroke-miterlimit="4" shape-rendering="geometricPrecision"/>
<line x1="713.95" y1="328.73" x2="883.32" y2="426.51" stroke="#e8e8ea" stroke-width="5.20" stroke-opacity="0.92" stroke-linecap="butt" stroke-linejoin="miter" stroke-miterlimit="4" shape-rendering="geometricPrecision"/>
<line x1="689.37" y1="342.92" x2="793.17" y2="402.86" stroke="#e8e8ea" stroke-width="5.20" stroke-opacity="0.92" stroke-linecap="butt" stroke-linejoin="miter" stroke-miterlimit="4" shape-rendering="geometricPrecision"/>
<line x1="640.20" y1="371.31" x2="830.21" y2="481.02" stroke="#868990" stroke-width="2.50" stroke-opacity="0.64" stroke-linecap="butt" stroke-linejoin="miter" stroke-miterlimit="4" shape-rendering="geometricPrecision"/>
<line x1="608.59" y1="389.56" x2="770.30" y2="482.93" stroke="#868990" stroke-width="2.50" stroke-opacity="0.64" stroke-linecap="butt" stroke-linejoin="miter" stroke-miterlimit="4" shape-rendering="geometricPrecision"/>
<line x1="576.98" y1="407.81" x2="773.06" y2="521.02" stroke="#868990" stroke-width="2.50" stroke-opacity="0.64" stroke-linecap="butt" stroke-linejoin="miter" stroke-miterlimit="4" shape-rendering="geometricPrecision"/>
<line x1="545.37" y1="426.06" x2="662.61" y2="493.75" stroke="#868990" stroke-width="2.50" stroke-opacity="0.64" stroke-linecap="butt" stroke-linejoin="miter" stroke-miterlimit="4" shape-rendering="geometricPrecision"/>
<line x1="513.76" y1="444.31" x2="691.64" y2="547.02" stroke="#868990" stroke-width="2.50" stroke-opacity="0.64" stroke-linecap="butt" stroke-linejoin="miter" stroke-miterlimit="4" shape-rendering="geometricPrecision"/>
<line x1="482.15" y1="462.56" x2="575.13" y2="516.25" stroke="#868990" stroke-width="2.50" stroke-opacity="0.64" stroke-linecap="butt" stroke-linejoin="miter" stroke-miterlimit="4" shape-rendering="geometricPrecision"/>
<circle cx="725.66" cy="530.15" r="8.0" fill="#1A1A18"/>
<circle cx="725.66" cy="530.15" r="5.5" fill="#D2EF15"/>
</svg>