<svg xmlns="http://www.w3.org/2000/svg" width="1200" height="1200" viewBox="0 0 1200 1200">
<defs><filter id="grain"><feTurbulence type="fractalNoise" baseFrequency="0.9" numOctaves="2" stitchTiles="stitch"/><feColorMatrix type="saturate" values="0"/><feComponentTransfer><feFuncA type="linear" slope="0.06"/></feComponentTransfer></filter></defs>
<rect width="1200" height="1200" fill="#1A1A18"/>
<rect width="1200" height="1200" filter="url(#grain)"/>
<g fill="none" stroke-linecap="butt" stroke-linejoin="miter" stroke-miterlimit="4" shape-rendering="geometricPrecision">
  <path d="M 580.00,264.64 L 299.57,750.36" stroke="#a8abb0" stroke-width="1.00"/>
  <path d="M 319.57,785.00 L 880.43,785.00" stroke="#a8abb0" stroke-width="1.00"/>
  <path d="M 900.43,750.36 L 620.00,264.64" stroke="#a8abb0" stroke-width="1.00"/>
  <path d="M 282.23,688.39 L 517.66,280.61" stroke="#a8abb0" stroke-width="1.00"/>
  <path d="M 517.66,280.61 L 503.91,290.60" stroke="#a8abb0" stroke-width="1.00"/>
  <path d="M 517.66,280.61 L 515.89,297.52" stroke="#a8abb0" stroke-width="1.00"/>
  <path d="M 682.34,280.61 L 917.77,688.39" stroke="#a8abb0" stroke-width="1.00"/>
  <path d="M 917.77,688.39 L 915.99,671.48" stroke="#a8abb0" stroke-width="1.00"/>
  <path d="M 917.77,688.39 L 904.01,678.40" stroke="#a8abb0" stroke-width="1.00"/>
  <path d="M 835.43,831.00 L 364.57,831.00" stroke="#a8abb0" stroke-width="1.00"/>
  <path d="M 364.57,831.00 L 380.10,837.91" stroke="#a8abb0" stroke-width="1.00"/>
  <path d="M 364.57,831.00 L 380.10,824.09" stroke="#a8abb0" stroke-width="1.00"/>
  <path d="M 600.00,482.00 L 600.00,378.00" stroke="#a8abb0" stroke-width="1.00"/>
  <path d="M 600.00,482.00 L 606.91,466.47" stroke="#a8abb0" stroke-width="1.00"/>
  <path d="M 600.00,482.00 L 593.09,466.47" stroke="#a8abb0" stroke-width="1.00"/>
  <path d="M 491.88,662.43 L 401.81,714.43" stroke="#a8abb0" stroke-width="1.00"/>
  <path d="M 491.88,662.43 L 474.97,664.20" stroke="#a8abb0" stroke-width="1.00"/>
  <path d="M 491.88,662.43 L 481.88,676.18" stroke="#a8abb0" stroke-width="1.00"/>
  <path d="M 693.75,654.12 L 783.81,706.12" stroke="#a8abb0" stroke-width="1.00"/>
  <path d="M 783.81,706.12 L 773.82,692.37" stroke="#a8abb0" stroke-width="1.00"/>
  <path d="M 783.81,706.12 L 766.91,704.35" stroke="#a8abb0" stroke-width="1.00"/>
</g>
<g fill="#6c6f74" opacity="0.4">
<circle cx="557.20" cy="504.00" r="1.00"/>
<circle cx="539.20" cy="510.00" r="1.00"/>
<circle cx="545.20" cy="510.00" r="1.00"/>
<circle cx="551.20" cy="510.00" r="1.00"/>
<circle cx="557.20" cy="510.00" r="1.00"/>
<circle cx="563.20" cy="510.00" r="1.00"/>
<circle cx="569.20" cy="510.00" r="1.00"/>
<circle cx="575.20" cy="510.00" r="1.00"/>
<circle cx="533.20" cy="516.00" r="1.00"/>
<circle cx="539.20" cy="516.00" r="1.00"/>
<circle cx="545.20" cy="516.00" r="1.00"/>
<circle cx="551.20" cy="516.00" r="1.00"/>
<circle cx="557.20" cy="516.00" r="1.00"/>
<circle cx="563.20" cy="516.00" r="1.00"/>
<circle cx="569.20" cy="516.00" r="1.00"/>
<circle cx="575.20" cy="516.00" r="1.00"/>
<circle cx="581.20" cy="516.00" r="1.00"/>
<circle cx="533.20" cy="522.00" r="1.00"/>
<circle cx="539.20" cy="522.00" r="1.00"/>
<circle cx="545.20" cy="522.00" r="1.00"/>
<circle cx="551.20" cy="522.00" r="1.00"/>
<circle cx="557.20" cy="522.00" r="1.00"/>
<circle cx="563.20" cy="522.00" r="1.00"/>
<circle cx="569.20" cy="522.00" r="1.00"/>
<circle cx="575.20" cy="522.00" r="1.00"/>
<circle cx="581.20" cy="522.00" r="1.00"/>
<circle cx="587.20" cy="522.00" r="1.00"/>
<circle cx="593.20" cy="522.00" r="1.00"/>
<circle cx="533.20" cy="528.00" r="1.00"/>
<circle cx="539.20" cy="528.00" r="1.00"/>
<circle cx="545.20" cy="528.00" r="1.00"/>
<circle cx="551.20" cy="528.00" r="1.00"/>
<circle cx="557.20" cy="528.00" r="1.00"/>
<circle cx="563.20" cy="528.00" r="1.00"/>
<circle cx="569.20" cy="528.00" r="1.00"/>
<circle cx="575.20" cy="528.00" r="1.00"/>
<circle cx="581.20" cy="528.00" r="1.00"/>
<circle cx="587.20" cy="528.00" r="1.00"/>
<circle cx="593.20" cy="528.00" r="1.00"/>
<circle cx="599.20" cy="528.00" r="1.00"/>
<circle cx="527.20" cy="534.00" r="1.00"/>
<circle cx="533.20" cy="534.00" r="1.00"/>
<circle cx="539.20" cy="534.00" r="1.00"/>
<circle cx="545.20" cy="534.00" r="1.00"/>
<circle cx="551.20" cy="534.00" r="1.00"/>
<circle cx="557.20" cy="534.00" r="1.00"/>
<circle cx="563.20" cy="534.00" r="1.00"/>
<circle cx="569.20" cy="534.00" r="1.00"/>
<circle cx="575.20" cy="534.00" r="1.00"/>
<circle cx="581.20" cy="534.00" r="1.00"/>
<circle cx="587.20" cy="534.00" r="1.00"/>
<circle cx="593.20" cy="534.00" r="1.00"/>
<circle cx="599.20" cy="534.00" r="1.00"/>
<circle cx="605.20" cy="534.00" r="1.00"/>
<circle cx="611.20" cy="534.00" r="1.00"/>
<circle cx="533.20" cy="540.00" r="1.00"/>
<circle cx="539.20" cy="540.00" r="1.00"/>
<circle cx="545.20" cy="540.00" r="1.00"/>
<circle cx="551.20" cy="540.00" r="1.00"/>
<circle cx="557.20" cy="540.00" r="1.00"/>
<circle cx="563.20" cy="540.00" r="1.00"/>
<circle cx="569.20" cy="540.00" r="1.00"/>
<circle cx="575.20" cy="540.00" r="1.00"/>
<circle cx="581.20" cy="540.00" r="1.00"/>
<circle cx="587.20" cy="540.00" r="1.00"/>
<circle cx="593.20" cy="540.00" r="1.00"/>
<circle cx="599.20" cy="540.00" r="1.00"/>
<circle cx="605.20" cy="540.00" r="1.00"/>
<circle cx="611.20" cy="540.00" r="1.00"/>
<circle cx="617.20" cy="540.00" r="1.00"/>
<circle cx="533.20" cy="546.00" r="1.00"/>
<circle cx="539.20" cy="546.00" r="1.00"/>
<circle cx="545.20" cy="546.00" r="1.00"/>
<circle cx="551.20" cy="546.00" r="1.00"/>
<circle cx="557.20" cy="546.00" r="1.00"/>
<circle cx="563.20" cy="546.00" r="1.00"/>
<circle cx="569.20" cy="546.00" r="1.00"/>
<circle cx="575.20" cy="546.00" r="1.00"/>
<circle cx="581.20" cy="546.00" r="1.00"/>
<circle cx="587.20" cy="546.00" r="1.00"/>
<circle cx="593.20" cy="546.00" r="1.00"/>
<circle cx="599.20" cy="546.00" r="1.00"/>
<circle cx="605.20" cy="546.00" r="1.00"/>
<circle cx="611.20" cy="546.00" r="1.00"/>
<circle cx="617.20" cy="546.00" r="1.00"/>
<circle cx="623.20" cy="546.00" r="1.00"/>
<circle cx="629.20" cy="546.00" r="1.00"/>
<circle cx="533.20" cy="552.00" r="1.00"/>
<circle cx="539.20" cy="552.00" r="1.00"/>
<circle cx="545.20" cy="552.00" r="1.00"/>
<circle cx="551.20" cy="552.00" r="1.00"/>
<circle cx="557.20" cy="552.00" r="1.00"/>
<circle cx="563.20" cy="552.00" r="1.00"/>
<circle cx="569.20" cy="552.00" r="1.00"/>
<circle cx="575.20" cy="552.00" r="1.00"/>
<circle cx="581.20" cy="552.00" r="1.00"/>
<circle cx="587.20" cy="552.00" r="1.00"/>
<circle cx="593.20" cy="552.00" r="1.00"/>
<circle cx="599.20" cy="552.00" r="1.00"/>
<circle cx="605.20" cy="552.00" r="1.00"/>
<circle cx="611.20" cy="552.00" r="1.00"/>
<circle cx="617.20" cy="552.00" r="1.00"/>
<circle cx="623.20" cy="552.00" r="1.00"/>
<circle cx="629.20" cy="552.00" r="1.00"/>
<circle cx="635.20" cy="552.00" r="1.00"/>
<circle cx="641.20" cy="552.00" r="1.00"/>
<circle cx="539.20" cy="558.00" r="1.00"/>
<circle cx="545.20" cy="558.00" r="1.00"/>
<circle cx="551.20" cy="558.00" r="1.00"/>
<circle cx="557.20" cy="558.00" r="1.00"/>
<circle cx="563.20" cy="558.00" r="1.00"/>
<circle cx="569.20" cy="558.00" r="1.00"/>
<circle cx="575.20" cy="558.00" r="1.00"/>
<circle cx="581.20" cy="558.00" r="1.00"/>
<circle cx="587.20" cy="558.00" r="1.00"/>
<circle cx="593.20" cy="558.00" r="1.00"/>
<circle cx="599.20" cy="558.00" r="1.00"/>
<circle cx="605.20" cy="558.00" r="1.00"/>
<circle cx="611.20" cy="558.00" r="1.00"/>
<circle cx="617.20" cy="558.00" r="1.00"/>
<circle cx="623.20" cy="558.00" r="1.00"/>
<circle cx="629.20" cy="558.00" r="1.00"/>
<circle cx="635.20" cy="558.00" r="1.00"/>
<circle cx="641.20" cy="558.00" r="1.00"/>
<circle cx="647.20" cy="558.00" r="1.00"/>
<circle cx="551.20" cy="564.00" r="1.00"/>
<circle cx="557.20" cy="564.00" r="1.00"/>
<circle cx="563.20" cy="564.00" r="1.00"/>
<circle cx="569.20" cy="564.00" r="1.00"/>
<circle cx="575.20" cy="564.00" r="1.00"/>
<circle cx="581.20" cy="564.00" r="1.00"/>
<circle cx="587.20" cy="564.00" r="1.00"/>
<circle cx="593.20" cy="564.00" r="1.00"/>
<circle cx="599.20" cy="564.00" r="1.00"/>
<circle cx="605.20" cy="564.00" r="1.00"/>
<circle cx="611.20" cy="564.00" r="1.00"/>
<circle cx="617.20" cy="564.00" r="1.00"/>
<circle cx="623.20" cy="564.00" r="1.00"/>
<circle cx="629.20" cy="564.00" r="1.00"/>
<circle cx="635.20" cy="564.00" r="1.00"/>
<circle cx="641.20" cy="564.00" r="1.00"/>
<circle cx="647.20" cy="564.00" r="1.00"/>
<circle cx="653.20" cy="564.00" r="1.00"/>
<circle cx="659.20" cy="564.00" r="1.00"/>
<circle cx="563.20" cy="570.00" r="1.00"/>
<circle cx="569.20" cy="570.00" r="1.00"/>
<circle cx="575.20" cy="570.00" r="1.00"/>
<circle cx="581.20" cy="570.00" r="1.00"/>
<circle cx="587.20" cy="570.00" r="1.00"/>
<circle cx="593.20" cy="570.00" r="1.00"/>
<circle cx="599.20" cy="570.00" r="1.00"/>
<circle cx="605.20" cy="570.00" r="1.00"/>
<circle cx="611.20" cy="570.00" r="1.00"/>
<circle cx="617.20" cy="570.00" r="1.00"/>
<circle cx="623.20" cy="570.00" r="1.00"/>
<circle cx="629.20" cy="570.00" r="1.00"/>
<circle cx="635.20" cy="570.00" r="1.00"/>
<circle cx="641.20" cy="570.00" r="1.00"/>
<circle cx="647.20" cy="570.00" r="1.00"/>
<circle cx="653.20" cy="570.00" r="1.00"/>
<circle cx="659.20" cy="570.00" r="1.00"/>
<circle cx="665.20" cy="570.00" r="1.00"/>
<circle cx="569.20" cy="576.00" r="1.00"/>
<circle cx="575.20" cy="576.00" r="1.00"/>
<circle cx="581.20" cy="576.00" r="1.00"/>
<circle cx="587.20" cy="576.00" r="1.00"/>
<circle cx="593.20" cy="576.00" r="1.00"/>
<circle cx="599.20" cy="576.00" r="1.00"/>
<circle cx="605.20" cy="576.00" r="1.00"/>
<circle cx="611.20" cy="576.00" r="1.00"/>
<circle cx="617.20" cy="576.00" r="1.00"/>
<circle cx="623.20" cy="576.00" r="1.00"/>
<circle cx="629.20" cy="576.00" r="1.00"/>
<circle cx="635.20" cy="576.00" r="1.00"/>
<circle cx="641.20" cy="576.00" r="1.00"/>
<circle cx="647.20" cy="576.00" r="1.00"/>
<circle cx="653.20" cy="576.00" r="1.00"/>
<circle cx="659.20" cy="576.00" r="1.00"/>
<circle cx="665.20" cy="576.00" r="1.00"/>
<circle cx="671.20" cy="576.00" r="1.00"/>
<circle cx="677.20" cy="576.00" r="1.00"/>
<circle cx="581.20" cy="582.00" r="1.00"/>
<circle cx="587.20" cy="582.00" r="1.00"/>
<circle cx="593.20" cy="582.00" r="1.00"/>
<circle cx="599.20" cy="582.00" r="1.00"/>
<circle cx="605.20" cy="582.00" r="1.00"/>
<circle cx="611.20" cy="582.00" r="1.00"/>
<circle cx="617.20" cy="582.00" r="1.00"/>
<circle cx="623.20" cy="582.00" r="1.00"/>
<circle cx="629.20" cy="582.00" r="1.00"/>
<circle cx="635.20" cy="582.00" r="1.00"/>
<circle cx="641.20" cy="582.00" r="1.00"/>
<circle cx="647.20" cy="582.00" r="1.00"/>
<circle cx="653.20" cy="582.00" r="1.00"/>
<circle cx="659.20" cy="582.00" r="1.00"/>
<circle cx="665.20" cy="582.00" r="1.00"/>
<circle cx="671.20" cy="582.00" r="1.00"/>
<circle cx="677.20" cy="582.00" r="1.00"/>
<circle cx="683.20" cy="582.00" r="1.00"/>
<circle cx="587.20" cy="588.00" r="1.00"/>
<circle cx="593.20" cy="588.00" r="1.00"/>
<circle cx="599.20" cy="588.00" r="1.00"/>
<circle cx="605.20" cy="588.00" r="1.00"/>
<circle cx="611.20" cy="588.00" r="1.00"/>
<circle cx="617.20" cy="588.00" r="1.00"/>
<circle cx="623.20" cy="588.00" r="1.00"/>
<circle cx="629.20" cy="588.00" r="1.00"/>
<circle cx="635.20" cy="588.00" r="1.00"/>
<circle cx="641.20" cy="588.00" r="1.00"/>
<circle cx="647.20" cy="588.00" r="1.00"/>
<circle cx="653.20" cy="588.00" r="1.00"/>
<circle cx="659.20" cy="588.00" r="1.00"/>
<circle cx="665.20" cy="588.00" r="1.00"/>
<circle cx="671.20" cy="588.00" r="1.00"/>
<circle cx="677.20" cy="588.00" r="1.00"/>
<circle cx="683.20" cy="588.00" r="1.00"/>
<circle cx="599.20" cy="594.00" r="1.00"/>
<circle cx="605.20" cy="594.00" r="1.00"/>
<circle cx="611.20" cy="594.00" r="1.00"/>
<circle cx="617.20" cy="594.00" r="1.00"/>
<circle cx="623.20" cy="594.00" r="1.00"/>
<circle cx="629.20" cy="594.00" r="1.00"/>
<circle cx="635.20" cy="594.00" r="1.00"/>
<circle cx="641.20" cy="594.00" r="1.00"/>
<circle cx="647.20" cy="594.00" r="1.00"/>
<circle cx="653.20" cy="594.00" r="1.00"/>
<circle cx="659.20" cy="594.00" r="1.00"/>
<circle cx="665.20" cy="594.00" r="1.00"/>
<circle cx="671.20" cy="594.00" r="1.00"/>
<circle cx="677.20" cy="594.00" r="1.00"/>
<circle cx="683.20" cy="594.00" r="1.00"/>
<circle cx="689.20" cy="594.00" r="1.00"/>
<circle cx="611.20" cy="600.00" r="1.00"/>
<circle cx="617.20" cy="600.00" r="1.00"/>
<circle cx="623.20" cy="600.00" r="1.00"/>
<circle cx="629.20" cy="600.00" r="1.00"/>
<circle cx="635.20" cy="600.00" r="1.00"/>
<circle cx="641.20" cy="600.00" r="1.00"/>
<circle cx="647.20" cy="600.00" r="1.00"/>
<circle cx="653.20" cy="600.00" r="1.00"/>
<circle cx="659.20" cy="600.00" r="1.00"/>
<circle cx="665.20" cy="600.00" r="1.00"/>
<circle cx="671.20" cy="600.00" r="1.00"/>
<circle cx="677.20" cy="600.00" r="1.00"/>
<circle cx="683.20" cy="600.00" r="1.00"/>
<circle cx="689.20" cy="600.00" r="1.00"/>
<circle cx="599.20" cy="606.00" r="1.00"/>
<circle cx="605.20" cy="606.00" r="1.00"/>
<circle cx="611.20" cy="606.00" r="1.00"/>
<circle cx="617.20" cy="606.00" r="1.00"/>
<circle cx="623.20" cy="606.00" r="1.00"/>
<circle cx="629.20" cy="606.00" r="1.00"/>
<circle cx="635.20" cy="606.00" r="1.00"/>
<circle cx="641.20" cy="606.00" r="1.00"/>
<circle cx="647.20" cy="606.00" r="1.00"/>
<circle cx="653.20" cy="606.00" r="1.00"/>
<circle cx="659.20" cy="606.00" r="1.00"/>
<circle cx="665.20" cy="606.00" r="1.00"/>
<circle cx="671.20" cy="606.00" r="1.00"/>
<circle cx="677.20" cy="606.00" r="1.00"/>
<circle cx="683.20" cy="606.00" r="1.00"/>
<circle cx="689.20" cy="606.00" r="1.00"/>
<circle cx="587.20" cy="612.00" r="1.00"/>
<circle cx="593.20" cy="612.00" r="1.00"/>
<circle cx="599.20" cy="612.00" r="1.00"/>
<circle cx="605.20" cy="612.00" r="1.00"/>
<circle cx="611.20" cy="612.00" r="1.00"/>
<circle cx="617.20" cy="612.00" r="1.00"/>
<circle cx="623.20" cy="612.00" r="1.00"/>
<circle cx="629.20" cy="612.00" r="1.00"/>
<circle cx="635.20" cy="612.00" r="1.00"/>
<circle cx="641.20" cy="612.00" r="1.00"/>
<circle cx="647.20" cy="612.00" r="1.00"/>
<circle cx="653.20" cy="612.00" r="1.00"/>
<circle cx="659.20" cy="612.00" r="1.00"/>
<circle cx="665.20" cy="612.00" r="1.00"/>
<circle cx="671.20" cy="612.00" r="1.00"/>
<circle cx="677.20" cy="612.00" r="1.00"/>
<circle cx="683.20" cy="612.00" r="1.00"/>
<circle cx="581.20" cy="618.00" r="1.00"/>
<circle cx="587.20" cy="618.00" r="1.00"/>
<circle cx="593.20" cy="618.00" r="1.00"/>
<circle cx="599.20" cy="618.00" r="1.00"/>
<circle cx="605.20" cy="618.00" r="1.00"/>
<circle cx="611.20" cy="618.00" r="1.00"/>
<circle cx="617.20" cy="618.00" r="1.00"/>
<circle cx="623.20" cy="618.00" r="1.00"/>
<circle cx="629.20" cy="618.00" r="1.00"/>
<circle cx="635.20" cy="618.00" r="1.00"/>
<circle cx="641.20" cy="618.00" r="1.00"/>
<circle cx="647.20" cy="618.00" r="1.00"/>
<circle cx="653.20" cy="618.00" r="1.00"/>
<circle cx="659.20" cy="618.00" r="1.00"/>
<circle cx="665.20" cy="618.00" r="1.00"/>
<circle cx="671.20" cy="618.00" r="1.00"/>
<circle cx="677.20" cy="618.00" r="1.00"/>
<circle cx="683.20" cy="618.00" r="1.00"/>
<circle cx="569.20" cy="624.00" r="1.00"/>
<circle cx="575.20" cy="624.00" r="1.00"/>
<circle cx="581.20" cy="624.00" r="1.00"/>
<circle cx="587.20" cy="624.00" r="1.00"/>
<circle cx="593.20" cy="624.00" r="1.00"/>
<circle cx="599.20" cy="624.00" r="1.00"/>
<circle cx="605.20" cy="624.00" r="1.00"/>
<circle cx="611.20" cy="624.00" r="1.00"/>
<circle cx="617.20" cy="624.00" r="1.00"/>
<circle cx="623.20" cy="624.00" r="1.00"/>
<circle cx="629.20" cy="624.00" r="1.00"/>
<circle cx="635.20" cy="624.00" r="1.00"/>
<circle cx="641.20" cy="624.00" r="1.00"/>
<circle cx="647.20" cy="624.00" r="1.00"/>
<circle cx="653.20" cy="624.00" r="1.00"/>
<circle cx="659.20" cy="624.00" r="1.00"/>
<circle cx="665.20" cy="624.00" r="1.00"/>
<circle cx="671.20" cy="624.00" r="1.00"/>
<circle cx="677.20" cy="624.00" r="1.00"/>
<circle cx="563.20" cy="630.00" r="1.00"/>
<circle cx="569.20" cy="630.00" r="1.00"/>
<circle cx="575.20" cy="630.00" r="1.00"/>
<circle cx="581.20" cy="630.00" r="1.00"/>
<circle cx="587.20" cy="630.00" r="1.00"/>
<circle cx="593.20" cy="630.00" r="1.00"/>
<circle cx="599.20" cy="630.00" r="1.00"/>
<circle cx="605.20" cy="630.00" r="1.00"/>
<circle cx="611.20" cy="630.00" r="1.00"/>
<circle cx="617.20" cy="630.00" r="1.00"/>
<circle cx="623.20" cy="630.00" r="1.00"/>
<circle cx="629.20" cy="630.00" r="1.00"/>
<circle cx="635.20" cy="630.00" r="1.00"/>
<circle cx="641.20" cy="630.00" r="1.00"/>
<circle cx="647.20" cy="630.00" r="1.00"/>
<circle cx="653.20" cy="630.00" r="1.00"/>
<circle cx="659.20" cy="630.00" r="1.00"/>
<circle cx="665.20" cy="630.00" r="1.00"/>
<circle cx="551.20" cy="636.00" r="1.00"/>
<circle cx="557.20" cy="636.00" r="1.00"/>
<circle cx="563.20" cy="636.00" r="1.00"/>
<circle cx="569.20" cy="636.00" r="1.00"/>
<circle cx="575.20" cy="636.00" r="1.00"/>
<circle cx="581.20" cy="636.00" r="1.00"/>
<circle cx="587.20" cy="636.00" r="1.00"/>
<circle cx="593.20" cy="636.00" r="1.00"/>
<circle cx="599.20" cy="636.00" r="1.00"/>
<circle cx="605.20" cy="636.00" r="1.00"/>
<circle cx="611.20" cy="636.00" r="1.00"/>
<circle cx="617.20" cy="636.00" r="1.00"/>
<circle cx="623.20" cy="636.00" r="1.00"/>
<circle cx="629.20" cy="636.00" r="1.00"/>
<circle cx="635.20" cy="636.00" r="1.00"/>
<circle cx="641.20" cy="636.00" r="1.00"/>
<circle cx="647.20" cy="636.00" r="1.00"/>
<circle cx="653.20" cy="636.00" r="1.00"/>
<circle cx="659.20" cy="636.00" r="1.00"/>
<circle cx="539.20" cy="642.00" r="1.00"/>
<circle cx="545.20" cy="642.00" r="1.00"/>
<circle cx="551.20" cy="642.00" r="1.00"/>
<circle cx="557.20" cy="642.00" r="1.00"/>
<circle cx="563.20" cy="642.00" r="1.00"/>
<circle cx="569.20" cy="642.00" r="1.00"/>
<circle cx="575.20" cy="642.00" r="1.00"/>
<circle cx="581.20" cy="642.00" r="1.00"/>
<circle cx="587.20" cy="642.00" r="1.00"/>
<circle cx="593.20" cy="642.00" r="1.00"/>
<circle cx="599.20" cy="642.00" r="1.00"/>
<circle cx="605.20" cy="642.00" r="1.00"/>
<circle cx="611.20" cy="642.00" r="1.00"/>
<circle cx="617.20" cy="642.00" r="1.00"/>
<circle cx="623.20" cy="642.00" r="1.00"/>
<circle cx="629.20" cy="642.00" r="1.00"/>
<circle cx="635.20" cy="642.00" r="1.00"/>
<circle cx="641.20" cy="642.00" r="1.00"/>
<circle cx="647.20" cy="642.00" r="1.00"/>
<circle cx="533.20" cy="648.00" r="1.00"/>
<circle cx="539.20" cy="648.00" r="1.00"/>
<circle cx="545.20" cy="648.00" r="1.00"/>
<circle cx="551.20" cy="648.00" r="1.00"/>
<circle cx="557.20" cy="648.00" r="1.00"/>
<circle cx="563.20" cy="648.00" r="1.00"/>
<circle cx="569.20" cy="648.00" r="1.00"/>
<circle cx="575.20" cy="648.00" r="1.00"/>
<circle cx="581.20" cy="648.00" r="1.00"/>
<circle cx="587.20" cy="648.00" r="1.00"/>
<circle cx="593.20" cy="648.00" r="1.00"/>
<circle cx="599.20" cy="648.00" r="1.00"/>
<circle cx="605.20" cy="648.00" r="1.00"/>
<circle cx="611.20" cy="648.00" r="1.00"/>
<circle cx="617.20" cy="648.00" r="1.00"/>
<circle cx="623.20" cy="648.00" r="1.00"/>
<circle cx="629.20" cy="648.00" r="1.00"/>
<circle cx="635.20" cy="648.00" r="1.00"/>
<circle cx="641.20" cy="648.00" r="1.00"/>
<circle cx="533.20" cy="654.00" r="1.00"/>
<circle cx="539.20" cy="654.00" r="1.00"/>
<circle cx="545.20" cy="654.00" r="1.00"/>
<circle cx="551.20" cy="654.00" r="1.00"/>
<circle cx="557.20" cy="654.00" r="1.00"/>
<circle cx="563.20" cy="654.00" r="1.00"/>
<circle cx="569.20" cy="654.00" r="1.00"/>
<circle cx="575.20" cy="654.00" r="1.00"/>
<circle cx="581.20" cy="654.00" r="1.00"/>
<circle cx="587.20" cy="654.00" r="1.00"/>
<circle cx="593.20" cy="654.00" r="1.00"/>
<circle cx="599.20" cy="654.00" r="1.00"/>
<circle cx="605.20" cy="654.00" r="1.00"/>
<circle cx="611.20" cy="654.00" r="1.00"/>
<circle cx="617.20" cy="654.00" r="1.00"/>
<circle cx="623.20" cy="654.00" r="1.00"/>
<circle cx="629.20" cy="654.00" r="1.00"/>
<circle cx="533.20" cy="660.00" r="1.00"/>
<circle cx="539.20" cy="660.00" r="1.00"/>
<circle cx="545.20" cy="660.00" r="1.00"/>
<circle cx="551.20" cy="660.00" r="1.00"/>
<circle cx="557.20" cy="660.00" r="1.00"/>
<circle cx="563.20" cy="660.00" r="1.00"/>
<circle cx="569.20" cy="660.00" r="1.00"/>
<circle cx="575.20" cy="660.00" r="1.00"/>
<circle cx="581.20" cy="660.00" r="1.00"/>
<circle cx="587.20" cy="660.00" r="1.00"/>
<circle cx="593.20" cy="660.00" r="1.00"/>
<circle cx="599.20" cy="660.00" r="1.00"/>
<circle cx="605.20" cy="660.00" r="1.00"/>
<circle cx="611.20" cy="660.00" r="1.00"/>
<circle cx="617.20" cy="660.00" r="1.00"/>
<circle cx="527.20" cy="666.00" r="1.00"/>
<circle cx="533.20" cy="666.00" r="1.00"/>
<circle cx="539.20" cy="666.00" r="1.00"/>
<circle cx="545.20" cy="666.00" r="1.00"/>
<circle cx="551.20" cy="666.00" r="1.00"/>
<circle cx="557.20" cy="666.00" r="1.00"/>
<circle cx="563.20" cy="666.00" r="1.00"/>
<circle cx="569.20" cy="666.00" r="1.00"/>
<circle cx="575.20" cy="666.00" r="1.00"/>
<circle cx="581.20" cy="666.00" r="1.00"/>
<circle cx="587.20" cy="666.00" r="1.00"/>
<circle cx="593.20" cy="666.00" r="1.00"/>
<circle cx="599.20" cy="666.00" r="1.00"/>
<circle cx="605.20" cy="666.00" r="1.00"/>
<circle cx="611.20" cy="666.00" r="1.00"/>
<circle cx="533.20" cy="672.00" r="1.00"/>
<circle cx="539.20" cy="672.00" r="1.00"/>
<circle cx="545.20" cy="672.00" r="1.00"/>
<circle cx="551.20" cy="672.00" r="1.00"/>
<circle cx="557.20" cy="672.00" r="1.00"/>
<circle cx="563.20" cy="672.00" r="1.00"/>
<circle cx="569.20" cy="672.00" r="1.00"/>
<circle cx="575.20" cy="672.00" r="1.00"/>
<circle cx="581.20" cy="672.00" r="1.00"/>
<circle cx="587.20" cy="672.00" r="1.00"/>
<circle cx="593.20" cy="672.00" r="1.00"/>
<circle cx="599.20" cy="672.00" r="1.00"/>
<circle cx="533.20" cy="678.00" r="1.00"/>
<circle cx="539.20" cy="678.00" r="1.00"/>
<circle cx="545.20" cy="678.00" r="1.00"/>
<circle cx="551.20" cy="678.00" r="1.00"/>
<circle cx="557.20" cy="678.00" r="1.00"/>
<circle cx="563.20" cy="678.00" r="1.00"/>
<circle cx="569.20" cy="678.00" r="1.00"/>
<circle cx="575.20" cy="678.00" r="1.00"/>
<circle cx="581.20" cy="678.00" r="1.00"/>
<circle cx="587.20" cy="678.00" r="1.00"/>
<circle cx="593.20" cy="678.00" r="1.00"/>
<circle cx="533.20" cy="684.00" r="1.00"/>
<circle cx="539.20" cy="684.00" r="1.00"/>
<circle cx="545.20" cy="684.00" r="1.00"/>
<circle cx="551.20" cy="684.00" r="1.00"/>
<circle cx="557.20" cy="684.00" r="1.00"/>
<circle cx="563.20" cy="684.00" r="1.00"/>
<circle cx="569.20" cy="684.00" r="1.00"/>
<circle cx="575.20" cy="684.00" r="1.00"/>
<circle cx="581.20" cy="684.00" r="1.00"/>
<circle cx="539.20" cy="690.00" r="1.00"/>
<circle cx="545.20" cy="690.00" r="1.00"/>
<circle cx="551.20" cy="690.00" r="1.00"/>
<circle cx="557.20" cy="690.00" r="1.00"/>
<circle cx="563.20" cy="690.00" r="1.00"/>
<circle cx="569.20" cy="690.00" r="1.00"/>
<circle cx="575.20" cy="690.00" r="1.00"/>
<circle cx="557.20" cy="696.00" r="1.00"/>
</g>
<g fill="#86898e">
<circle cx="545.20" cy="510.00" r="1.50"/>
<circle cx="557.20" cy="510.00" r="1.50"/>
<circle cx="569.20" cy="510.00" r="1.50"/>
<circle cx="533.20" cy="522.00" r="1.50"/>
<circle cx="545.20" cy="522.00" r="1.50"/>
<circle cx="557.20" cy="522.00" r="1.50"/>
<circle cx="569.20" cy="522.00" r="1.50"/>
<circle cx="581.20" cy="522.00" r="1.50"/>
<circle cx="593.20" cy="522.00" r="1.50"/>
<circle cx="533.20" cy="534.00" r="1.50"/>
<circle cx="545.20" cy="534.00" r="1.50"/>
<circle cx="557.20" cy="534.00" r="1.50"/>
<circle cx="569.20" cy="534.00" r="1.50"/>
<circle cx="581.20" cy="534.00" r="1.50"/>
<circle cx="593.20" cy="534.00" r="1.50"/>
<circle cx="605.20" cy="534.00" r="1.50"/>
<circle cx="533.20" cy="546.00" r="1.50"/>
<circle cx="545.20" cy="546.00" r="1.50"/>
<circle cx="557.20" cy="546.00" r="1.50"/>
<circle cx="569.20" cy="546.00" r="1.50"/>
<circle cx="581.20" cy="546.00" r="1.50"/>
<circle cx="593.20" cy="546.00" r="1.50"/>
<circle cx="605.20" cy="546.00" r="1.50"/>
<circle cx="617.20" cy="546.00" r="1.50"/>
<circle cx="629.20" cy="546.00" r="1.50"/>
<circle cx="545.20" cy="558.00" r="1.50"/>
<circle cx="557.20" cy="558.00" r="1.50"/>
<circle cx="569.20" cy="558.00" r="1.50"/>
<circle cx="581.20" cy="558.00" r="1.50"/>
<circle cx="593.20" cy="558.00" r="1.50"/>
<circle cx="605.20" cy="558.00" r="1.50"/>
<circle cx="617.20" cy="558.00" r="1.50"/>
<circle cx="629.20" cy="558.00" r="1.50"/>
<circle cx="641.20" cy="558.00" r="1.50"/>
<circle cx="569.20" cy="570.00" r="1.50"/>
<circle cx="581.20" cy="570.00" r="1.50"/>
<circle cx="593.20" cy="570.00" r="1.50"/>
<circle cx="605.20" cy="570.00" r="1.50"/>
<circle cx="617.20" cy="570.00" r="1.50"/>
<circle cx="629.20" cy="570.00" r="1.50"/>
<circle cx="641.20" cy="570.00" r="1.50"/>
<circle cx="653.20" cy="570.00" r="1.50"/>
<circle cx="665.20" cy="570.00" r="1.50"/>
<circle cx="581.20" cy="582.00" r="1.50"/>
<circle cx="593.20" cy="582.00" r="1.50"/>
<circle cx="605.20" cy="582.00" r="1.50"/>
<circle cx="617.20" cy="582.00" r="1.50"/>
<circle cx="629.20" cy="582.00" r="1.50"/>
<circle cx="641.20" cy="582.00" r="1.50"/>
<circle cx="653.20" cy="582.00" r="1.50"/>
<circle cx="665.20" cy="582.00" r="1.50"/>
<circle cx="677.20" cy="582.00" r="1.50"/>
<circle cx="605.20" cy="594.00" r="1.50"/>
<circle cx="617.20" cy="594.00" r="1.50"/>
<circle cx="629.20" cy="594.00" r="1.50"/>
<circle cx="641.20" cy="594.00" r="1.50"/>
<circle cx="653.20" cy="594.00" r="1.50"/>
<circle cx="665.20" cy="594.00" r="1.50"/>
<circle cx="677.20" cy="594.00" r="1.50"/>
<circle cx="689.20" cy="594.00" r="1.50"/>
<circle cx="605.20" cy="606.00" r="1.50"/>
<circle cx="617.20" cy="606.00" r="1.50"/>
<circle cx="629.20" cy="606.00" r="1.50"/>
<circle cx="641.20" cy="606.00" r="1.50"/>
<circle cx="653.20" cy="606.00" r="1.50"/>
<circle cx="665.20" cy="606.00" r="1.50"/>
<circle cx="677.20" cy="606.00" r="1.50"/>
<circle cx="689.20" cy="606.00" r="1.50"/>
<circle cx="581.20" cy="618.00" r="1.50"/>
<circle cx="593.20" cy="618.00" r="1.50"/>
<circle cx="605.20" cy="618.00" r="1.50"/>
<circle cx="617.20" cy="618.00" r="1.50"/>
<circle cx="629.20" cy="618.00" r="1.50"/>
<circle cx="641.20" cy="618.00" r="1.50"/>
<circle cx="653.20" cy="618.00" r="1.50"/>
<circle cx="665.20" cy="618.00" r="1.50"/>
<circle cx="677.20" cy="618.00" r="1.50"/>
<circle cx="569.20" cy="630.00" r="1.50"/>
<circle cx="581.20" cy="630.00" r="1.50"/>
<circle cx="593.20" cy="630.00" r="1.50"/>
<circle cx="605.20" cy="630.00" r="1.50"/>
<circle cx="617.20" cy="630.00" r="1.50"/>
<circle cx="629.20" cy="630.00" r="1.50"/>
<circle cx="641.20" cy="630.00" r="1.50"/>
<circle cx="653.20" cy="630.00" r="1.50"/>
<circle cx="665.20" cy="630.00" r="1.50"/>
<circle cx="545.20" cy="642.00" r="1.50"/>
<circle cx="557.20" cy="642.00" r="1.50"/>
<circle cx="569.20" cy="642.00" r="1.50"/>
<circle cx="581.20" cy="642.00" r="1.50"/>
<circle cx="593.20" cy="642.00" r="1.50"/>
<circle cx="605.20" cy="642.00" r="1.50"/>
<circle cx="617.20" cy="642.00" r="1.50"/>
<circle cx="629.20" cy="642.00" r="1.50"/>
<circle cx="641.20" cy="642.00" r="1.50"/>
<circle cx="533.20" cy="654.00" r="1.50"/>
<circle cx="545.20" cy="654.00" r="1.50"/>
<circle cx="557.20" cy="654.00" r="1.50"/>
<circle cx="569.20" cy="654.00" r="1.50"/>
<circle cx="581.20" cy="654.00" r="1.50"/>
<circle cx="593.20" cy="654.00" r="1.50"/>
<circle cx="605.20" cy="654.00" r="1.50"/>
<circle cx="617.20" cy="654.00" r="1.50"/>
<circle cx="629.20" cy="654.00" r="1.50"/>
<circle cx="533.20" cy="666.00" r="1.50"/>
<circle cx="545.20" cy="666.00" r="1.50"/>
<circle cx="557.20" cy="666.00" r="1.50"/>
<circle cx="569.20" cy="666.00" r="1.50"/>
<circle cx="581.20" cy="666.00" r="1.50"/>
<circle cx="593.20" cy="666.00" r="1.50"/>
<circle cx="605.20" cy="666.00" r="1.50"/>
<circle cx="533.20" cy="678.00" r="1.50"/>
<circle cx="545.20" cy="678.00" r="1.50"/>
<circle cx="557.20" cy="678.00" r="1.50"/>
<circle cx="569.20" cy="678.00" r="1.50"/>
<circle cx="581.20" cy="678.00" r="1.50"/>
<circle cx="593.20" cy="678.00" r="1.50"/>
<circle cx="545.20" cy="690.00" r="1.50"/>
<circle cx="557.20" cy="690.00" r="1.50"/>
<circle cx="569.20" cy="690.00" r="1.50"/>
</g>
<g fill="#1A1A18" stroke="#a8abb0" stroke-width="1.00">
<circle cx="600.00" cy="230.00" r="33.00"/>
<circle cx="279.57" cy="785.00" r="33.00"/>
<circle cx="920.43" cy="785.00" r="33.00"/>
</g>
</svg>